ply
format ascii 1.0
comment Created by Open3D
element vertex 162
property double x
property double y
property double z
property double nx
property double ny
property double nz
element face 320
property list uchar uint vertex_indices
end_header
0.214835 0.0559681 0.0343751 0.112638 -0.63479 -0.76443
0.228446 0.0751618 0.0280477 0.309244 0.150529 -0.938993
0.245384 0.0574893 0.0427749 0.667667 -0.476676 -0.571839
0.196647 0.0450901 0.0495324 0.0259665 -0.79597 -0.604779
0.186987 0.059668 0.0305334 0.10204 -0.653873 -0.749691
0.222626 0.0389119 0.0590497 0.196704 -0.797476 -0.570386
0.203567 0.0759185 0.0240315 0.187391 0.0945373 -0.977725
0.209987 0.092211 0.0373683 0.142454 0.600185 -0.787073
0.201171 0.0254737 0.0754852 0.0845133 -0.800142 -0.593826
0.248815 0.0443986 0.0732846 0.876846 -0.450772 -0.167169
0.178897 0.0792796 0.0174725 0.245809 0.102487 -0.963885
0.251335 0.0862348 0.0455729 0.785946 0.274264 -0.554137
0.195591 0.008553 0.101013 -0.0134577 -0.973393 0.228746
0.169432 0.0123248 0.0836695 0.0605038 -0.932617 -0.355758
0.200077 0.107207 0.0472666 0.154663 0.594214 -0.789296
0.217887 0.108083 0.0512326 0.145604 0.595046 -0.790392
0.167618 0.0488951 0.0428468 0.116466 -0.78588 -0.607312
0.230122 0.0945042 0.0420286 0.205674 0.577806 -0.789834
0.239052 0.107257 0.0539343 0.413566 0.587263 -0.695762
0.176115 0.033365 0.0630832 0.113226 -0.752127 -0.649218
0.147594 0.0299404 0.0591721 -0.0826078 -0.751376 -0.654683
0.251762 0.073239 0.0668704 0.998141 -0.0578646 0.0191255
0.251057 0.0981926 0.0650872 0.962757 0.223643 -0.151933
0.248033 0.0661839 0.0895244 0.994619 -0.0588623 0.0852541
0.24886 0.0888013 0.0861459 0.994725 0.0122121 0.101852
0.229818 0.0189238 0.0871797 0.451321 -0.858499 -0.243493
0.244 0.0379294 0.104185 0.889347 -0.38186 0.251486
0.22315 0.0248338 0.124267 0.198612 -0.571197 0.796422
0.189893 0.0932056 0.0338348 0.236659 0.616591 -0.750872
0.170455 0.096535 0.0284923 0.259831 0.616122 -0.74356
0.177494 0.109512 0.0433781 0.246891 0.621513 -0.743483
0.161002 0.061461 0.0223053 0.0114367 -0.595387 -0.803358
0.141642 0.0474322 0.0377564 -0.411538 -0.650434 -0.638413
0.155258 0.081864 0.0142025 0.027453 0.108571 -0.993709
0.137027 0.0721555 0.0240291 -0.622247 -0.397237 -0.674545
0.129318 0.00937397 0.0866242 -0.578463 -0.807307 0.116774
0.226239 0.119136 0.0611857 0.261619 0.553703 -0.790549
0.24826 0.0851109 0.106676 0.996963 0.0145473 0.0765034
0.132674 0.0947269 0.0173127 -0.414589 0.0641934 -0.907742
0.127663 0.0679043 0.0490429 -0.896427 -0.252001 -0.364574
0.249629 0.110605 0.0825779 0.996557 0.0829079 0.000767059
0.247287 0.0641232 0.113317 0.956736 -0.155252 0.246078
0.244269 0.0795242 0.129018 0.669784 -0.06027 0.740106
0.234587 0.0547363 0.129294 0.376079 -0.215971 0.901067
0.142237 0.0439962 0.105577 -0.340413 -0.138387 0.930036
0.117198 0.0505766 0.0914657 -0.898749 -0.255015 0.356676
0.150617 0.100154 0.0247974 0.334994 0.47951 -0.811079
0.157391 0.113396 0.0392197 0.431315 0.555926 -0.710572
0.139458 0.117361 0.0249097 0.288971 0.377428 -0.879797
0.2442 0.118131 0.0667841 0.656417 0.487883 -0.575401
0.231569 0.132253 0.073344 0.384959 0.574004 -0.722722
0.247325 0.128714 0.0792386 0.825092 0.353477 -0.44077
0.165129 0.0202526 0.107351 -0.206831 -0.545715 0.812044
0.190864 0.035592 0.116447 -0.24937 -0.231165 0.940413
0.167916 0.0466847 0.110426 -0.256082 -0.0725976 0.963925
0.208506 0.121123 0.0578051 0.198758 0.362182 -0.910669
0.188676 0.124123 0.058238 0.125142 0.273303 -0.953753
0.201628 0.136122 0.0565319 0.296724 -0.0297874 -0.954498
0.214796 0.135168 0.064423 0.520714 0.366149 -0.771227
0.12697 0.0435268 0.0625235 -0.816635 -0.368096 -0.444536
0.120257 0.0657687 0.0713608 -0.935881 -0.185454 -0.299558
0.246642 0.0982085 0.121899 0.927219 -0.00120235 0.374519
0.12329 0.111711 0.0294021 -0.790871 0.0014332 -0.611981
0.246442 0.103939 0.101429 0.997759 0.0161243 0.0649395
0.247535 0.121607 0.0969072 0.998347 -0.0536775 0.0205322
0.247134 0.119457 0.115848 0.988441 -0.101682 0.112455
0.210722 0.0547248 0.123252 -0.245229 -0.0665684 0.967177
0.224078 0.0752732 0.127871 -0.182721 -0.0714031 0.980568
0.20093 0.0772693 0.122046 -0.262612 -0.0436452 0.963914
0.189338 0.0599321 0.118388 -0.270806 -0.0596138 0.960786
0.165124 0.126786 0.0528467 0.370125 0.259373 -0.892039
0.144781 0.130062 0.0404951 0.598913 0.219847 -0.770045
0.158283 0.149208 0.0476773 0.365922 -0.25524 -0.89496
0.178768 0.141906 0.0555369 0.133804 -0.281429 -0.950207
0.125185 0.0896674 0.0378187 -0.913062 -0.247645 -0.324021
0.12069 0.087089 0.057913 -0.931689 -0.217427 -0.291001
0.117135 0.106493 0.0516035 -0.952232 -0.154944 -0.263147
0.235057 0.145594 0.0843013 0.414491 0.5421 -0.730975
0.111962 0.0738558 0.0947504 -0.903541 -0.190498 0.383829
0.240492 0.113966 0.134483 0.453642 -0.145227 0.879271
0.182947 0.0829117 0.117023 -0.287659 -0.0158615 0.957601
0.176132 0.164277 0.0414768 0.337876 -0.06408 -0.939007
0.232963 0.0948688 0.13197 0.0724983 -0.0944305 0.992888
0.222963 0.11018 0.13065 -0.27514 -0.0847298 0.957663
0.21309 0.095334 0.126468 -0.284018 -0.0552662 0.957225
0.249386 0.139655 0.0924781 0.922955 0.210977 -0.321936
0.24527 0.159301 0.0990571 0.724909 0.456989 -0.515431
0.250041 0.138787 0.111318 0.998924 -0.0368922 -0.0280994
0.170856 0.0682692 0.113237 -0.291715 -0.0376396 0.955764
0.151369 0.0663572 0.107225 -0.226303 -0.0360715 0.973389
0.163009 0.0853997 0.110805 -0.252202 -0.0319784 0.967146
0.22459 0.161518 0.0927868 0.498146 0.522109 -0.69228
0.218327 0.147213 0.0786436 0.608409 0.463885 -0.643933
0.208294 0.152193 0.0641636 0.732389 0.256651 -0.630663
0.208804 0.168536 0.0759714 0.771764 0.396678 -0.497019
0.13084 0.0680605 0.103089 -0.342787 -0.105952 0.933419
0.1443 0.0857389 0.107226 -0.206876 -0.0529101 0.976935
0.122871 0.0899332 0.102374 -0.393872 -0.0721561 0.916329
0.108568 0.0976353 0.0922102 -0.952901 -0.0830311 0.291693
0.194572 0.153549 0.0509557 0.459695 -0.0407787 -0.88714
0.194474 0.173442 0.0592244 0.653157 0.38534 -0.651843
0.113824 0.0856931 0.0772981 -0.944027 -0.183702 -0.273983
0.11238 0.104344 0.071079 -0.957455 -0.13945 -0.252652
0.117293 0.128625 0.0444866 -0.93416 -0.00228742 -0.356849
0.128628 0.132899 0.0271329 -0.224706 0.198032 -0.954091
0.137508 0.152292 0.0328258 0.274527 -0.0497537 -0.960291
0.120854 0.14766 0.0367791 -0.765993 0.0377507 -0.64174
0.175147 0.0991135 0.114778 -0.272407 -0.0760461 0.959172
0.174491 0.18791 0.0523906 0.470524 0.48295 -0.738489
0.251596 0.160627 0.123636 0.922144 0.303935 0.239321
0.107707 0.116595 0.0863831 -0.99495 -0.0146413 0.0992991
0.209227 0.184808 0.0961192 0.673715 0.546685 -0.497235
0.229673 0.13011 0.134826 -0.15138 -0.0881818 0.984534
0.11358 0.142561 0.0599667 -0.97183 -0.0163381 -0.235118
0.247925 0.134266 0.132431 0.752564 -0.0891038 0.652464
0.231243 0.152261 0.137864 0.0394254 -0.00780287 0.999192
0.193812 0.0961089 0.1206 -0.285115 -0.0360151 0.957816
0.203097 0.110206 0.123593 -0.288417 -0.078104 0.954314
0.1864 0.114104 0.119649 -0.260042 -0.0963487 0.960778
0.154004 0.173066 0.036426 0.319208 0.0904406 -0.943359
0.127186 0.17557 0.0297216 -0.372645 0.163394 -0.913476
0.141355 0.202726 0.0460245 0.0597816 0.630038 -0.774259
0.112411 0.123002 0.0656302 -0.974248 -0.0283807 -0.223688
0.10968 0.13942 0.0814607 -0.999187 -0.00127809 -0.0402971
0.229742 0.186236 0.137072 0.320092 0.554336 0.768278
0.112661 0.131836 0.102299 -0.712902 -0.0443958 0.699856
0.211465 0.143764 0.129903 -0.297534 -0.0787985 0.951454
0.108977 0.16311 0.0774879 -0.989235 -0.0904066 -0.115074
0.232833 0.179309 0.109909 0.617288 0.65858 -0.430381
0.215317 0.197544 0.118 0.605714 0.795582 -0.0126322
0.156222 0.102102 0.110254 -0.232944 -0.0784489 0.969321
0.167494 0.117042 0.115548 -0.257959 -0.103347 0.960612
0.13708 0.105566 0.106426 -0.215445 -0.059829 0.974681
0.150212 0.117933 0.110111 -0.244232 -0.103208 0.964209
0.194144 0.192007 0.0740016 0.694895 0.529705 -0.486347
0.171124 0.216158 0.0742276 0.444154 0.746106 -0.496037
0.193357 0.206811 0.096765 0.649067 0.676297 -0.348331
0.117748 0.110453 0.102289 -0.536516 -0.0746019 0.840586
0.130222 0.123195 0.106347 -0.239468 -0.0805174 0.96756
0.212648 0.125018 0.128462 -0.302882 -0.100666 0.947697
0.195825 0.129434 0.124331 -0.274772 -0.108498 0.955368
0.114628 0.164479 0.0520194 -0.935671 -0.0510749 -0.349159
0.107733 0.194891 0.0591764 -0.875115 0.251192 -0.413615
0.192031 0.148406 0.125028 -0.271424 -0.0674011 0.960097
0.104858 0.186616 0.0978282 -0.85176 0.106225 0.513051
0.161505 0.134888 0.115269 -0.248655 -0.0862093 0.964748
0.16639 0.230961 0.109664 0.104315 0.891413 0.441023
0.208661 0.164976 0.130086 -0.288887 -0.0284988 0.956939
0.202637 0.188785 0.128983 -0.103669 0.215777 0.970924
0.184469 0.172007 0.12381 -0.261619 -0.0391883 0.964375
0.17923 0.131975 0.119366 -0.262731 -0.0891718 0.960739
0.170006 0.151994 0.118926 -0.263103 -0.0634962 0.962676
0.123058 0.23158 0.0855766 -0.464171 0.885743 0.00202428
0.141607 0.202503 0.113062 -0.354139 0.186128 0.916483
0.110134 0.155 0.0996301 -0.815998 -0.0480576 0.576054
0.127879 0.145229 0.107124 -0.304699 -0.0257987 0.952099
0.131747 0.168395 0.109156 -0.32884 -0.0207743 0.944157
0.195686 0.215605 0.123737 0.355178 0.678209 0.643336
0.172786 0.195756 0.122027 -0.252195 0.0911231 0.963376
0.143662 0.134791 0.111045 -0.2451 -0.0894975 0.965358
0.149632 0.153339 0.113575 -0.257386 -0.0461528 0.965205
0.158832 0.173383 0.116625 -0.267841 -0.0408034 0.962598
3 0 1 2
3 0 3 4
3 0 2 5
3 0 5 3
3 0 6 1
3 0 4 6
3 1 6 7
3 3 5 8
3 2 9 5
3 6 4 10
3 11 2 1
3 8 12 13
3 7 14 15
3 16 4 3
3 17 1 7
3 17 11 1
3 17 7 15
3 17 18 11
3 17 15 18
3 19 3 8
3 19 8 13
3 19 16 3
3 19 13 20
3 19 20 16
3 21 2 11
3 21 11 22
3 21 9 2
3 21 23 9
3 21 22 24
3 21 24 23
3 25 5 9
3 25 8 5
3 25 9 26
3 25 26 27
3 25 12 8
3 25 27 12
3 28 6 10
3 28 7 6
3 28 10 29
3 28 29 30
3 28 14 7
3 28 30 14
3 31 4 16
3 31 16 32
3 31 10 4
3 31 33 10
3 31 32 34
3 31 34 33
3 18 22 11
3 13 35 20
3 15 36 18
3 20 32 16
3 23 24 37
3 26 9 23
3 29 10 33
3 33 34 38
3 32 39 34
3 24 22 40
3 41 23 37
3 41 26 23
3 41 37 42
3 41 43 26
3 41 42 43
3 35 44 45
3 46 29 33
3 46 33 38
3 46 47 29
3 46 38 48
3 46 48 47
3 49 18 36
3 49 22 18
3 49 36 50
3 49 40 22
3 49 50 51
3 49 51 40
3 52 13 12
3 52 12 53
3 52 35 13
3 52 53 54
3 52 44 35
3 52 54 44
3 55 15 14
3 55 14 56
3 55 36 15
3 55 56 57
3 55 58 36
3 55 57 58
3 59 20 35
3 59 32 20
3 59 35 45
3 59 39 32
3 59 45 60
3 59 60 39
3 37 61 42
3 43 27 26
3 47 30 29
3 38 62 48
3 53 12 27
3 56 14 30
3 63 24 40
3 63 37 24
3 63 40 64
3 63 61 37
3 63 64 65
3 63 65 61
3 66 27 43
3 66 43 67
3 66 53 27
3 66 67 68
3 66 69 53
3 66 68 69
3 70 30 47
3 70 47 71
3 70 56 30
3 70 71 72
3 70 73 56
3 70 72 73
3 74 34 39
3 74 38 34
3 74 39 75
3 74 62 38
3 74 75 76
3 74 76 62
3 42 67 43
3 48 71 47
3 58 50 36
3 51 50 77
3 54 53 69
3 57 56 73
3 60 45 78
3 61 65 79
3 64 40 51
3 69 68 80
3 73 72 81
3 75 39 60
3 82 42 61
3 82 61 79
3 82 67 42
3 82 79 83
3 82 84 67
3 82 83 84
3 68 67 84
3 85 51 77
3 85 64 51
3 85 77 86
3 85 87 64
3 85 86 87
3 88 54 69
3 88 69 80
3 88 89 54
3 88 80 90
3 88 90 89
3 77 91 86
3 89 44 54
3 92 50 58
3 92 58 93
3 92 77 50
3 92 93 94
3 92 91 77
3 92 94 91
3 95 44 89
3 95 45 44
3 95 89 96
3 95 78 45
3 95 96 97
3 95 97 78
3 93 58 57
3 78 97 98
3 99 57 73
3 99 73 81
3 99 93 57
3 99 81 100
3 99 100 93
3 101 60 78
3 101 75 60
3 101 78 98
3 101 102 75
3 101 98 102
3 76 103 62
3 104 48 62
3 104 71 48
3 104 62 103
3 104 105 71
3 104 103 106
3 104 106 105
3 87 65 64
3 80 107 90
3 81 108 100
3 102 76 75
3 105 72 71
3 86 109 87
3 90 96 89
3 100 94 93
3 98 110 102
3 91 94 111
3 83 79 112
3 106 103 113
3 114 65 87
3 114 87 109
3 114 79 65
3 114 109 115
3 114 112 79
3 114 115 112
3 116 68 84
3 116 80 68
3 116 84 117
3 116 107 80
3 116 117 118
3 116 118 107
3 119 72 105
3 119 81 72
3 119 105 120
3 119 108 81
3 119 120 121
3 119 121 108
3 122 76 102
3 122 102 110
3 122 103 76
3 122 110 123
3 122 113 103
3 122 123 113
3 109 124 115
3 110 125 123
3 112 115 126
3 117 84 83
3 120 105 106
3 113 123 127
3 128 86 91
3 128 91 111
3 128 109 86
3 128 111 129
3 128 124 109
3 128 129 124
3 130 90 107
3 130 96 90
3 130 107 131
3 130 132 96
3 130 131 133
3 130 133 132
3 134 100 108
3 134 94 100
3 134 108 135
3 134 111 94
3 134 135 136
3 134 136 111
3 137 98 97
3 137 97 132
3 137 110 98
3 137 132 138
3 137 125 110
3 137 138 125
3 139 83 112
3 139 112 126
3 139 117 83
3 139 126 140
3 139 140 117
3 132 97 96
3 141 106 113
3 141 120 106
3 141 113 127
3 141 142 120
3 141 127 142
3 121 135 108
3 131 107 118
3 126 143 140
3 140 118 117
3 142 121 120
3 127 144 142
3 129 111 136
3 133 131 145
3 136 135 146
3 138 132 133
3 147 115 124
3 147 124 148
3 147 126 115
3 147 143 126
3 147 148 149
3 147 149 143
3 150 118 140
3 150 131 118
3 150 140 143
3 150 143 151
3 150 145 131
3 150 151 145
3 152 121 142
3 152 135 121
3 152 142 144
3 152 144 153
3 152 146 135
3 152 153 146
3 154 123 125
3 154 125 155
3 154 127 123
3 154 144 127
3 154 155 156
3 154 156 144
3 157 129 136
3 157 136 146
3 157 148 129
3 157 146 158
3 157 158 148
3 159 133 145
3 159 138 133
3 159 145 160
3 159 155 138
3 159 160 155
3 148 124 129
3 145 151 160
3 146 153 158
3 155 125 138
3 149 151 143
3 153 144 156
3 158 149 148
3 160 156 155
3 161 149 158
3 161 151 149
3 161 153 156
3 161 156 160
3 161 158 153
3 161 160 151
