ply
format ascii 1.0
comment Created by Open3D
element vertex 162
property double x
property double y
property double z
property double nx
property double ny
property double nz
element face 320
property list uchar uint vertex_indices
end_header
-0.14224 0.139552 0.194454 -0.125006 -0.769608 0.626162
-0.130165 0.129844 0.175648 0.0458605 -0.986928 -0.154499
-0.110524 0.139264 0.19413 0.467109 -0.735653 0.490534
-0.155982 0.159052 0.20493 -0.170696 -0.593228 0.78673
-0.169915 0.143512 0.189726 -0.131879 -0.752636 0.645094
-0.128643 0.161048 0.212159 0.00275076 -0.606967 0.794723
-0.155146 0.132806 0.173962 -0.0839679 -0.991089 -0.103403
-0.144709 0.143964 0.158116 -0.055843 -0.792561 -0.607231
-0.145272 0.182659 0.2251 -0.111589 -0.598768 0.793111
-0.0993694 0.167589 0.207813 0.779895 -0.403688 0.47833
-0.180524 0.13328 0.169641 -0.0237349 -0.993748 -0.109094
-0.102951 0.140486 0.165657 0.614028 -0.7468 -0.255459
-0.144287 0.208643 0.242218 0.0128688 0.218155 0.975829
-0.174032 0.199156 0.237263 -0.0745062 -0.363993 0.928417
-0.150957 0.156285 0.142942 -0.0449439 -0.798079 -0.600875
-0.132722 0.155222 0.14275 -0.0539191 -0.796645 -0.602039
-0.185567 0.160602 0.200011 -0.0840322 -0.620416 0.779758
-0.123996 0.142939 0.156599 0.00331274 -0.812673 -0.582711
-0.111672 0.152013 0.144355 0.229218 -0.779143 -0.583435
-0.172448 0.177646 0.216146 -0.0973414 -0.659636 0.745255
-0.201059 0.181684 0.218513 -0.287017 -0.611204 0.737599
-0.0972027 0.160776 0.178995 0.962322 -0.255558 0.0928793
-0.0974241 0.159396 0.154007 0.892137 -0.408766 -0.19236
-0.0948517 0.183544 0.186273 0.977001 -0.191004 0.0947993
-0.094127 0.180197 0.163648 0.984334 -0.174669 0.024043
-0.114787 0.186015 0.232827 0.334627 -0.362746 0.869736
-0.0957837 0.198589 0.214598 0.909115 -0.00411349 0.416524
-0.11082 0.223543 0.227276 0.387284 0.708218 0.590287
-0.16495 0.14608 0.156366 0.0452234 -0.783478 -0.619772
-0.184968 0.14629 0.152278 0.0694767 -0.782802 -0.618381
-0.173637 0.158749 0.139791 0.0572658 -0.77915 -0.624217
-0.197073 0.142733 0.186899 -0.231432 -0.779078 0.582647
-0.21198 0.16282 0.200488 -0.594868 -0.504815 0.625535
-0.20404 0.136631 0.166183 -0.241522 -0.962537 -0.123248
-0.219238 0.151023 0.175405 -0.797687 -0.480366 0.364615
-0.211886 0.212977 0.238862 -0.554505 0.266301 0.788421
-0.121552 0.162566 0.132153 0.0559725 -0.828833 -0.556689
-0.0892233 0.200083 0.167639 0.979635 -0.199646 0.0213866
-0.224406 0.145885 0.152593 -0.644497 -0.758938 -0.092935
-0.221551 0.177622 0.179723 -0.970848 -0.10629 0.214839
-0.0935397 0.176678 0.14183 0.961098 -0.271981 -0.0481357
-0.0891341 0.206618 0.188683 0.98097 -0.0265041 0.192342
-0.0871538 0.222631 0.173436 0.844016 0.527792 0.0952497
-0.097321 0.225411 0.197873 0.59992 0.762215 0.243155
-0.192973 0.227858 0.205015 -0.0778087 0.986928 0.141138
-0.220651 0.221189 0.197344 -0.775763 0.587939 0.229174
-0.204908 0.148195 0.147912 0.118064 -0.869111 -0.48032
-0.193949 0.160283 0.135144 0.241037 -0.798429 -0.551737
-0.214951 0.15146 0.130331 0.0511623 -0.923158 -0.381001
-0.102796 0.163021 0.133871 0.491801 -0.730531 -0.473769
-0.112605 0.172872 0.119423 0.193844 -0.797302 -0.571607
-0.0959833 0.174201 0.123601 0.685678 -0.648059 -0.331459
-0.171385 0.223155 0.229566 0.00286883 0.834531 0.550954
-0.143583 0.224934 0.215278 0.00902061 0.971424 0.237182
-0.166866 0.225497 0.203299 0.0150036 0.996772 0.0788691
-0.139445 0.164188 0.129496 -0.0445653 -0.928203 -0.369396
-0.158271 0.170057 0.125815 -0.130469 -0.949959 -0.283826
-0.145836 0.164934 0.114248 0.0227642 -0.999428 0.0250052
-0.131057 0.168907 0.115785 0.303174 -0.882341 -0.359945
-0.219449 0.190637 0.204271 -0.920442 -0.205718 0.332363
-0.22264 0.201102 0.181952 -0.988451 -0.0325726 0.147995
-0.0861151 0.215241 0.154735 0.993587 0.105978 0.0394084
-0.229473 0.16018 0.135485 -0.927542 -0.371716 -0.0386462
-0.0916948 0.195643 0.148678 0.977294 -0.210976 0.0196557
-0.0912136 0.191095 0.13099 0.963063 -0.254238 0.0887248
-0.0864956 0.209408 0.133424 0.976889 -0.163394 0.137802
-0.121911 0.226143 0.196958 0.0265518 0.996959 0.0732736
-0.107033 0.22704 0.176963 0.0901083 0.992674 0.080493
-0.130799 0.227795 0.17407 0.00981897 0.998716 0.0497102
-0.143597 0.227357 0.190933 0.000484043 0.997864 0.0653325
-0.182281 0.171344 0.122249 0.12134 -0.957846 -0.2604
-0.205088 0.165061 0.118072 0.373119 -0.90347 -0.211008
-0.189422 0.168375 0.0995233 0.0970387 -0.962418 0.253644
-0.16786 0.170276 0.107658 -0.142154 -0.952065 0.270858
-0.226181 0.16763 0.157712 -0.97557 -0.0627058 0.210549
-0.225099 0.188172 0.16045 -0.98329 -0.0256739 0.180226
-0.229508 0.183188 0.140836 -0.993046 0.00709837 0.117514
-0.10575 0.182529 0.106386 0.218761 -0.813516 -0.538829
-0.223904 0.225915 0.173952 -0.770495 0.61573 0.164967
-0.0879853 0.229118 0.138975 0.671172 0.720393 0.174819
-0.149243 0.227926 0.167726 -0.0149294 0.999669 0.020975
-0.173396 0.157604 0.0849887 0.0652573 -0.996006 0.0609506
-0.0966313 0.228657 0.157756 0.337891 0.934427 0.112585
-0.106024 0.230215 0.142087 -0.00548547 0.995906 0.0902298
-0.117219 0.228816 0.156512 -0.0130232 0.998085 0.0604717
-0.0899648 0.18643 0.11295 0.806871 -0.561415 -0.183777
-0.0913763 0.193997 0.0932787 0.572874 -0.691809 -0.439564
-0.0842109 0.204364 0.114138 0.95094 -0.301069 0.0712029
-0.162454 0.227516 0.181877 -0.0201545 0.998891 0.0425668
-0.1829 0.227066 0.183014 0.0475944 0.997917 0.0435562
-0.170013 0.227426 0.164447 0.02115 0.999036 0.0384656
-0.112884 0.193648 0.0902443 0.308994 -0.79935 -0.515328
-0.123315 0.181683 0.104097 0.425995 -0.783411 -0.452543
-0.136733 0.170537 0.0985419 0.540943 -0.805811 -0.240934
-0.132392 0.181845 0.0824155 0.620663 -0.687289 -0.377374
-0.203698 0.228726 0.180532 -0.0779375 0.991015 0.108698
-0.188961 0.229115 0.1634 0.0665987 0.995907 0.061115
-0.210724 0.230347 0.158386 -0.130433 0.988775 0.0728776
-0.226962 0.224538 0.150031 -0.83909 0.541265 0.0544031
-0.153484 0.161604 0.0965009 0.197412 -0.979389 0.0427281
-0.150563 0.169695 0.0767498 0.463865 -0.80373 -0.372623
-0.226443 0.208688 0.161912 -0.989214 -0.00573561 0.146365
-0.228828 0.203209 0.143126 -0.994607 0.0187099 0.102015
-0.230468 0.176427 0.118613 -0.995553 -0.0871023 -0.0358835
-0.224163 0.156655 0.114463 -0.469634 -0.854806 -0.220797
-0.213337 0.159805 0.0954833 -0.000908537 -0.999027 0.0440924
-0.228436 0.168146 0.0995944 -0.910404 -0.406948 -0.0745415
-0.156742 0.227997 0.151229 -0.00211726 0.996657 0.0816715
-0.171092 0.168684 0.0614877 0.268317 -0.836437 -0.47789
-0.0785183 0.215907 0.0925624 0.963242 -0.0209181 -0.267821
-0.228667 0.219277 0.130963 -0.92958 0.368159 -0.0184429
-0.125855 0.201196 0.0664887 0.532047 -0.659769 -0.530689
-0.0976793 0.232505 0.122471 0.12068 0.987801 0.0984134
-0.229272 0.19241 0.104803 -0.998966 0.0402104 -0.0212299
-0.080636 0.225222 0.118915 0.898491 0.420652 0.125559
-0.0945008 0.235121 0.100439 0.311108 0.950047 0.0249687
-0.137323 0.228462 0.154973 -0.0131878 0.999064 0.0412059
-0.127048 0.228875 0.141258 -0.0189117 0.996363 0.0830936
-0.144027 0.229681 0.136719 0.00943752 0.994697 0.102415
-0.195712 0.158863 0.0753554 0.0519695 -0.994199 -0.0941759
-0.223227 0.159781 0.0718137 -0.602005 -0.775388 -0.190694
-0.20412 0.171729 0.045429 -0.13066 -0.757406 -0.639738
-0.229585 0.198066 0.124397 -0.998616 0.0517963 -0.00909957
-0.227255 0.214132 0.108145 -0.971359 0.235149 -0.0341511
-0.0948752 0.234964 0.0664233 0.538896 0.654228 -0.530638
-0.218973 0.233311 0.116157 -0.495247 0.868213 0.0306064
-0.116009 0.23284 0.108115 -0.0284827 0.996107 0.0834249
-0.228123 0.210638 0.0843858 -0.985634 0.160006 0.0540765
-0.0996019 0.207955 0.0730236 0.500348 -0.579375 -0.64341
-0.113532 0.220642 0.05432 0.608758 -0.173687 -0.77411
-0.176056 0.228852 0.147513 0.0384962 0.995585 0.0856071
-0.163208 0.230937 0.133059 0.0111295 0.993927 0.109478
-0.195369 0.230437 0.143324 0.0574849 0.996049 0.0676948
-0.181271 0.230451 0.131481 0.0253122 0.993623 0.109875
-0.146133 0.184102 0.05842 0.55474 -0.655201 -0.512812
-0.167282 0.190767 0.033489 0.319294 -0.594558 -0.737938
-0.140098 0.206293 0.0439598 0.55402 -0.509081 -0.65871
-0.214896 0.231786 0.137702 -0.288349 0.955025 0.0691572
-0.201314 0.232341 0.125467 0.0316656 0.995669 0.0874191
-0.115975 0.231023 0.126866 -0.0354778 0.993836 0.105031
-0.133108 0.231687 0.121802 -0.00665912 0.993464 0.113957
-0.229612 0.184604 0.0828122 -0.996745 -0.0795693 0.0129373
-0.233129 0.193549 0.0522946 -0.944759 -0.156443 -0.28802
-0.135845 0.233505 0.102723 -0.000593264 0.997326 0.0730817
-0.225625 0.231461 0.0610751 -0.674136 0.727486 -0.127693
-0.168366 0.232412 0.115014 0.021851 0.995451 0.0927424
-0.161572 0.226226 0.0190919 0.254689 0.400575 -0.880156
-0.117851 0.233905 0.0868237 -0.0167691 0.999297 0.0335498
-0.123042 0.23463 0.0628051 0.174304 0.963355 -0.203877
-0.142554 0.234541 0.0788561 0.0110686 0.998912 0.0452985
-0.150319 0.231476 0.118607 0.00711387 0.995438 0.0951493
-0.158547 0.233695 0.0982736 0.00825756 0.997547 0.0695101
-0.209786 0.214945 0.0165843 -0.412045 0.134209 -0.901226
-0.185535 0.236127 0.0467205 -0.0824367 0.979495 -0.183832
-0.221257 0.231569 0.0928799 -0.628355 0.777396 0.0287183
-0.20252 0.233855 0.103381 -0.0331885 0.998992 0.0302245
-0.197371 0.234881 0.0803985 -0.0583725 0.998001 0.0242378
-0.130145 0.231643 0.0356795 0.543101 0.525157 -0.655174
-0.153371 0.236163 0.0546901 0.0247809 0.996107 -0.0846053
-0.186673 0.23324 0.114423 0.0253105 0.995044 0.0961617
-0.179541 0.234142 0.096136 0.0151002 0.998511 0.0524184
-0.169107 0.234667 0.076475 0.00454106 0.9989 0.0466677
3 0 1 2
3 0 3 4
3 0 2 5
3 0 5 3
3 0 6 1
3 0 4 6
3 1 6 7
3 3 5 8
3 2 9 5
3 6 4 10
3 11 2 1
3 8 12 13
3 7 14 15
3 16 4 3
3 17 1 7
3 17 11 1
3 17 7 15
3 17 18 11
3 17 15 18
3 19 3 8
3 19 8 13
3 19 16 3
3 19 13 20
3 19 20 16
3 21 2 11
3 21 11 22
3 21 9 2
3 21 23 9
3 21 22 24
3 21 24 23
3 25 5 9
3 25 8 5
3 25 9 26
3 25 26 27
3 25 12 8
3 25 27 12
3 28 6 10
3 28 7 6
3 28 10 29
3 28 29 30
3 28 14 7
3 28 30 14
3 31 4 16
3 31 16 32
3 31 10 4
3 31 33 10
3 31 32 34
3 31 34 33
3 18 22 11
3 13 35 20
3 15 36 18
3 20 32 16
3 23 24 37
3 26 9 23
3 29 10 33
3 33 34 38
3 32 39 34
3 24 22 40
3 41 23 37
3 41 26 23
3 41 37 42
3 41 43 26
3 41 42 43
3 35 44 45
3 46 29 33
3 46 33 38
3 46 47 29
3 46 38 48
3 46 48 47
3 49 18 36
3 49 22 18
3 49 36 50
3 49 40 22
3 49 50 51
3 49 51 40
3 52 13 12
3 52 12 53
3 52 35 13
3 52 53 54
3 52 44 35
3 52 54 44
3 55 15 14
3 55 14 56
3 55 36 15
3 55 56 57
3 55 58 36
3 55 57 58
3 59 20 35
3 59 32 20
3 59 35 45
3 59 39 32
3 59 45 60
3 59 60 39
3 37 61 42
3 43 27 26
3 47 30 29
3 38 62 48
3 53 12 27
3 56 14 30
3 63 24 40
3 63 37 24
3 63 40 64
3 63 61 37
3 63 64 65
3 63 65 61
3 66 27 43
3 66 43 67
3 66 53 27
3 66 67 68
3 66 69 53
3 66 68 69
3 70 30 47
3 70 47 71
3 70 56 30
3 70 71 72
3 70 73 56
3 70 72 73
3 74 34 39
3 74 38 34
3 74 39 75
3 74 62 38
3 74 75 76
3 74 76 62
3 42 67 43
3 48 71 47
3 58 50 36
3 51 50 77
3 54 53 69
3 57 56 73
3 60 45 78
3 61 65 79
3 64 40 51
3 69 68 80
3 73 72 81
3 75 39 60
3 82 42 61
3 82 61 79
3 82 67 42
3 82 79 83
3 82 84 67
3 82 83 84
3 68 67 84
3 85 51 77
3 85 64 51
3 85 77 86
3 85 87 64
3 85 86 87
3 88 54 69
3 88 69 80
3 88 89 54
3 88 80 90
3 88 90 89
3 77 91 86
3 89 44 54
3 92 50 58
3 92 58 93
3 92 77 50
3 92 93 94
3 92 91 77
3 92 94 91
3 95 44 89
3 95 45 44
3 95 89 96
3 95 78 45
3 95 96 97
3 95 97 78
3 93 58 57
3 78 97 98
3 99 57 73
3 99 73 81
3 99 93 57
3 99 81 100
3 99 100 93
3 101 60 78
3 101 75 60
3 101 78 98
3 101 102 75
3 101 98 102
3 76 103 62
3 104 48 62
3 104 71 48
3 104 62 103
3 104 105 71
3 104 103 106
3 104 106 105
3 87 65 64
3 80 107 90
3 81 108 100
3 102 76 75
3 105 72 71
3 86 109 87
3 90 96 89
3 100 94 93
3 98 110 102
3 91 94 111
3 83 79 112
3 106 103 113
3 114 65 87
3 114 87 109
3 114 79 65
3 114 109 115
3 114 112 79
3 114 115 112
3 116 68 84
3 116 80 68
3 116 84 117
3 116 107 80
3 116 117 118
3 116 118 107
3 119 72 105
3 119 81 72
3 119 105 120
3 119 108 81
3 119 120 121
3 119 121 108
3 122 76 102
3 122 102 110
3 122 103 76
3 122 110 123
3 122 113 103
3 122 123 113
3 109 124 115
3 110 125 123
3 112 115 126
3 117 84 83
3 120 105 106
3 113 123 127
3 128 86 91
3 128 91 111
3 128 109 86
3 128 111 129
3 128 124 109
3 128 129 124
3 130 90 107
3 130 96 90
3 130 107 131
3 130 132 96
3 130 131 133
3 130 133 132
3 134 100 108
3 134 94 100
3 134 108 135
3 134 111 94
3 134 135 136
3 134 136 111
3 137 98 97
3 137 97 132
3 137 110 98
3 137 132 138
3 137 125 110
3 137 138 125
3 139 83 112
3 139 112 126
3 139 117 83
3 139 126 140
3 139 140 117
3 132 97 96
3 141 106 113
3 141 120 106
3 141 113 127
3 141 142 120
3 141 127 142
3 121 135 108
3 131 107 118
3 126 143 140
3 140 118 117
3 142 121 120
3 127 144 142
3 129 111 136
3 133 131 145
3 136 135 146
3 138 132 133
3 147 115 124
3 147 124 148
3 147 126 115
3 147 143 126
3 147 148 149
3 147 149 143
3 150 118 140
3 150 131 118
3 150 140 143
3 150 143 151
3 150 145 131
3 150 151 145
3 152 121 142
3 152 135 121
3 152 142 144
3 152 144 153
3 152 146 135
3 152 153 146
3 154 123 125
3 154 125 155
3 154 127 123
3 154 144 127
3 154 155 156
3 154 156 144
3 157 129 136
3 157 136 146
3 157 148 129
3 157 146 158
3 157 158 148
3 159 133 145
3 159 138 133
3 159 145 160
3 159 155 138
3 159 160 155
3 148 124 129
3 145 151 160
3 146 153 158
3 155 125 138
3 149 151 143
3 153 144 156
3 158 149 148
3 160 156 155
3 161 149 158
3 161 151 149
3 161 153 156
3 161 156 160
3 161 158 153
3 161 160 151
