ply
format ascii 1.0
comment Created by Open3D
element vertex 162
property double x
property double y
property double z
property double nx
property double ny
property double nz
element face 320
property list uchar uint vertex_indices
end_header
0.160178 -0.249205 0.0825103 -0.336286 -0.93592 -0.10471
0.171226 -0.244588 0.0612891 -0.15874 -0.553558 -0.817542
0.191002 -0.255638 0.0786929 0.257479 -0.936682 -0.237341
0.150266 -0.240987 0.105162 -0.354385 -0.924976 0.137224
0.134465 -0.237525 0.0850347 -0.340699 -0.936867 -0.078761
0.176762 -0.250442 0.108661 -0.189196 -0.975254 0.114389
0.147688 -0.236309 0.0649124 -0.289818 -0.566573 -0.771362
0.161464 -0.219632 0.0608353 -0.18138 -0.0780751 -0.980309
0.164316 -0.242007 0.134833 -0.298553 -0.94531 0.131354
0.206999 -0.248948 0.107212 0.635073 -0.771324 -0.0417286
0.123421 -0.227706 0.0649781 -0.231357 -0.57654 -0.783629
0.200775 -0.235891 0.0590943 0.454026 -0.437466 -0.776198
0.169649 -0.237268 0.165136 -0.0132253 -0.559704 0.828587
0.139009 -0.233931 0.158106 -0.22149 -0.894315 0.38877
0.159208 -0.199261 0.0598361 -0.172454 -0.0885364 -0.98103
0.176735 -0.203551 0.0569949 -0.180788 -0.0849146 -0.979849
0.122184 -0.230381 0.106034 -0.275451 -0.955705 0.103704
0.181511 -0.22345 0.056842 -0.130038 -0.121143 -0.98408
0.1964 -0.211133 0.0535596 0.0971479 -0.144472 -0.984728
0.137451 -0.233347 0.127967 -0.294354 -0.954212 0.0532436
0.110312 -0.226529 0.135546 -0.467803 -0.877827 0.102862
0.209787 -0.233185 0.0822053 0.873796 -0.43294 -0.221456
0.211147 -0.216082 0.0639845 0.793544 -0.315167 -0.520535
0.216488 -0.223782 0.103266 0.901997 -0.394453 -0.175522
0.218163 -0.209878 0.0851693 0.918003 -0.334206 -0.213486
0.194132 -0.25156 0.139314 0.181315 -0.934792 0.305431
0.216731 -0.233977 0.133689 0.85249 -0.487921 0.187597
0.206583 -0.223457 0.1619 0.486807 -0.0333977 0.872871
0.14236 -0.212837 0.0633028 -0.0801131 -0.0836537 -0.993269
0.123234 -0.205671 0.0627678 -0.0564694 -0.089156 -0.994415
0.137911 -0.190729 0.0618457 -0.0671181 -0.0800402 -0.994529
0.10808 -0.230466 0.0854264 -0.438645 -0.889183 -0.130166
0.0969288 -0.22386 0.110771 -0.735786 -0.663733 0.134454
0.101527 -0.218194 0.0674989 -0.435425 -0.501177 -0.747814
0.0891806 -0.212168 0.0857862 -0.908233 -0.418412 -0.00658466
0.105064 -0.218177 0.17314 -0.540778 -0.277111 0.794209
0.19 -0.193332 0.0537373 -0.0842685 -0.161341 -0.983294
0.226966 -0.200545 0.101627 0.908189 -0.347921 -0.232685
0.0847449 -0.198115 0.0669086 -0.785489 -0.305532 -0.538198
0.0923984 -0.19714 0.108041 -0.984012 -0.0269383 0.176052
0.219606 -0.19664 0.0675223 0.879615 -0.34216 -0.330458
0.226896 -0.211362 0.120824 0.934366 -0.356198 0.00908341
0.233456 -0.190165 0.121537 0.929119 0.109656 0.353145
0.222333 -0.203822 0.141488 0.731545 0.208752 0.649048
0.129251 -0.187809 0.158389 0.128654 0.569689 0.811728
0.101441 -0.18107 0.151278 -0.644039 0.383902 0.661689
0.104573 -0.197195 0.063246 -0.0383539 -0.255694 -0.965996
0.118829 -0.182221 0.0619032 0.102069 -0.182491 -0.977895
0.0968315 -0.180331 0.054512 -0.122685 -0.349368 -0.928919
0.208221 -0.198094 0.053245 0.355022 -0.244679 -0.90227
0.201907 -0.179159 0.0513615 0.0578817 -0.157816 -0.98577
0.218057 -0.184674 0.0534224 0.550962 -0.331859 -0.765709
0.147391 -0.213 0.169673 0.143198 0.157239 0.977123
0.175906 -0.207215 0.158109 0.20256 0.472583 0.857691
0.154271 -0.193472 0.152726 0.225789 0.602072 0.765851
0.173141 -0.186691 0.0549736 -0.217808 -0.341525 -0.914287
0.156376 -0.176303 0.0586407 -0.312564 -0.399987 -0.861576
0.168229 -0.173924 0.0456597 -0.197415 -0.686264 -0.700049
0.183361 -0.175408 0.0479847 0.129857 -0.388853 -0.912102
0.0954362 -0.206585 0.13408 -0.965443 -0.187787 0.18071
0.0962856 -0.18293 0.126492 -0.980066 0.0736861 0.184498
0.234261 -0.181833 0.103226 0.986982 -0.160795 -0.00311765
0.0842122 -0.175283 0.0658601 -0.980652 -0.0296867 -0.193492
0.225018 -0.18935 0.08562 0.903573 -0.353722 -0.241734
0.225823 -0.179745 0.0700998 0.875117 -0.429226 -0.22346
0.23422 -0.170299 0.0843754 0.904673 -0.40703 -0.126063
0.198633 -0.197659 0.144007 0.237487 0.603863 0.760887
0.214807 -0.185717 0.12925 0.297859 0.582851 0.756018
0.192062 -0.178283 0.130331 0.223356 0.625395 0.747658
0.178247 -0.188092 0.143031 0.212914 0.615497 0.758834
0.13356 -0.167983 0.059663 -0.0710051 -0.473477 -0.877939
0.110311 -0.164495 0.0547206 0.182136 -0.524295 -0.83183
0.127671 -0.15215 0.0426078 -0.134243 -0.841315 -0.52361
0.148456 -0.16114 0.0472823 -0.366039 -0.797997 -0.478765
0.0873691 -0.186997 0.0861874 -0.978791 0.00605194 0.204768
0.092691 -0.175547 0.102656 -0.975961 0.0540286 0.211141
0.0887876 -0.163847 0.086017 -0.973608 0.122892 0.192315
0.21166 -0.164768 0.0485334 0.076136 -0.197247 -0.977393
0.101061 -0.160441 0.138851 -0.628039 0.447466 0.636664
0.236647 -0.1609 0.102467 0.796902 0.215592 0.564328
0.174619 -0.169869 0.128014 0.201639 0.65175 0.731138
0.142011 -0.152118 0.0231541 -0.158018 -0.718521 -0.677316
0.226723 -0.172951 0.116031 0.52388 0.470511 0.710048
0.219099 -0.158727 0.107328 0.20481 0.597507 0.775266
0.206817 -0.167748 0.117485 0.200183 0.621898 0.757079
0.227377 -0.170121 0.0541709 0.676678 -0.405295 -0.614688
0.229128 -0.150658 0.0461489 0.439779 -0.260121 -0.859611
0.236793 -0.160241 0.0672045 0.854436 -0.445244 -0.267763
0.160612 -0.177623 0.138905 0.194764 0.636768 0.746051
0.140532 -0.174566 0.141552 0.260404 0.62158 0.738801
0.154545 -0.163602 0.127611 0.235297 0.631383 0.738911
0.208351 -0.144317 0.0461017 0.165263 -0.223164 -0.960669
0.194554 -0.160097 0.0482242 0.277874 -0.281627 -0.918407
0.179487 -0.160763 0.037848 0.368963 -0.472179 -0.80057
0.187385 -0.142541 0.0343357 0.482598 -0.311609 -0.818534
0.120842 -0.167433 0.143247 0.131855 0.595764 0.792262
0.136553 -0.15786 0.13012 0.277141 0.603736 0.747459
0.11602 -0.148992 0.129863 0.0829729 0.630759 0.771529
0.0995813 -0.143525 0.121672 -0.702707 0.491554 0.514371
0.161394 -0.161807 0.0318385 -0.024431 -0.721357 -0.692132
0.167482 -0.142823 0.0236739 0.304299 -0.360337 -0.881793
0.0957418 -0.162701 0.118485 -0.97484 0.0928341 0.202651
0.0936381 -0.15234 0.101847 -0.971434 0.142069 0.190084
0.0880492 -0.152156 0.0659356 -0.985048 0.171195 0.019264
0.0901896 -0.163586 0.0482533 -0.626611 -0.31291 -0.713754
0.102836 -0.150052 0.0362427 -0.221796 -0.694895 -0.684052
0.0896515 -0.144389 0.0466609 -0.968955 -0.0307595 -0.245314
0.168576 -0.156424 0.117473 0.208893 0.603474 0.769533
0.148431 -0.128326 0.014603 0.114791 -0.266418 -0.956998
0.246467 -0.138219 0.0599527 0.95288 -0.0178655 -0.302819
0.0982081 -0.132954 0.104923 -0.822998 0.44748 0.349907
0.199157 -0.119569 0.0364805 0.413871 -0.164963 -0.895264
0.229191 -0.144801 0.0945274 0.325202 0.560485 0.761643
0.0937318 -0.131854 0.0677036 -0.961739 0.245888 0.120815
0.244456 -0.150558 0.0850416 0.956517 0.00559258 0.291622
0.234508 -0.127864 0.0808439 0.507797 0.549374 0.663573
0.187292 -0.162772 0.118317 0.201683 0.63644 0.744491
0.198411 -0.154729 0.108043 0.19238 0.605684 0.772099
0.182406 -0.147463 0.107298 0.218153 0.584893 0.781223
0.121292 -0.139797 0.0197855 -0.158908 -0.603023 -0.781736
0.0949841 -0.131023 0.0209357 -0.740383 -0.254809 -0.622017
0.11816 -0.108011 0.00921925 -0.244087 -0.0160764 -0.96962
0.093188 -0.142128 0.0853143 -0.959786 0.244784 0.137442
0.100175 -0.120246 0.0853335 -0.891445 0.378989 0.248381
0.236663 -0.103424 0.05728 0.706739 0.706109 0.0439349
0.11181 -0.114964 0.103701 -0.295113 0.65558 0.69507
0.212505 -0.13051 0.0868104 0.182986 0.60723 0.773167
0.100353 -0.105298 0.0665186 -0.928327 0.268542 0.257087
0.225685 -0.125141 0.0430239 0.408999 -0.0240279 -0.912218
0.216298 -0.10042 0.0406694 0.61267 0.317239 -0.723875
0.150247 -0.149241 0.117581 0.247885 0.591641 0.767146
0.164289 -0.140082 0.107718 0.219101 0.578956 0.785369
0.132114 -0.141232 0.117885 0.267809 0.600958 0.753079
0.146724 -0.135582 0.108211 0.232807 0.575574 0.78391
0.176306 -0.120977 0.020847 0.435606 -0.179422 -0.882074
0.15905 -0.0943007 0.0106558 0.236606 0.0708452 -0.969019
0.188098 -0.0970722 0.0260887 0.477687 0.0226979 -0.878237
0.113828 -0.132307 0.117053 -0.0777669 0.64326 0.761688
0.128083 -0.12591 0.10755 0.241121 0.591787 0.769186
0.210735 -0.145211 0.098457 0.174062 0.591608 0.787211
0.194588 -0.13763 0.0972652 0.201354 0.579057 0.790031
0.093352 -0.121149 0.0469692 -0.988234 0.141323 0.0584958
0.0941692 -0.0925391 0.0326675 -0.931794 0.29615 -0.209889
0.193752 -0.122141 0.0856811 0.211167 0.609786 0.763917
0.10907 -0.075213 0.065048 -0.487957 0.71252 0.504195
0.160946 -0.125069 0.0968619 0.231123 0.589817 0.773755
0.173411 -0.0615647 0.0254671 0.401169 0.84711 -0.348521
0.212543 -0.114112 0.0730651 0.198824 0.642833 0.739753
0.209453 -0.0952934 0.0575509 0.394753 0.75075 0.529664
0.189242 -0.102916 0.0706564 0.224947 0.628444 0.744618
0.178034 -0.131959 0.096746 0.216599 0.591086 0.776983
0.172037 -0.11418 0.08517 0.220096 0.610696 0.760663
0.124225 -0.0574102 0.020816 -0.304064 0.821496 -0.48238
0.150175 -0.0699727 0.0541896 0.14693 0.799456 0.582478
0.110956 -0.0989112 0.0866228 -0.44428 0.623806 0.643024
0.128898 -0.108771 0.0935087 0.183029 0.648374 0.738993
0.135858 -0.0926096 0.0778206 0.158756 0.657163 0.736839
0.203927 -0.0763152 0.0374396 0.692067 0.709127 -0.134843
0.180883 -0.0822474 0.0562828 0.247432 0.717224 0.651434
0.143355 -0.120357 0.0990018 0.234144 0.586381 0.775456
0.151865 -0.10806 0.086256 0.228248 0.622233 0.748818
0.163609 -0.0956987 0.0719388 0.218489 0.628784 0.746252
3 0 1 2
3 0 3 4
3 0 2 5
3 0 5 3
3 0 6 1
3 0 4 6
3 1 6 7
3 3 5 8
3 2 9 5
3 6 4 10
3 11 2 1
3 8 12 13
3 7 14 15
3 16 4 3
3 17 1 7
3 17 11 1
3 17 7 15
3 17 18 11
3 17 15 18
3 19 3 8
3 19 8 13
3 19 16 3
3 19 13 20
3 19 20 16
3 21 2 11
3 21 11 22
3 21 9 2
3 21 23 9
3 21 22 24
3 21 24 23
3 25 5 9
3 25 8 5
3 25 9 26
3 25 26 27
3 25 12 8
3 25 27 12
3 28 6 10
3 28 7 6
3 28 10 29
3 28 29 30
3 28 14 7
3 28 30 14
3 31 4 16
3 31 16 32
3 31 10 4
3 31 33 10
3 31 32 34
3 31 34 33
3 18 22 11
3 13 35 20
3 15 36 18
3 20 32 16
3 23 24 37
3 26 9 23
3 29 10 33
3 33 34 38
3 32 39 34
3 24 22 40
3 41 23 37
3 41 26 23
3 41 37 42
3 41 43 26
3 41 42 43
3 35 44 45
3 46 29 33
3 46 33 38
3 46 47 29
3 46 38 48
3 46 48 47
3 49 18 36
3 49 22 18
3 49 36 50
3 49 40 22
3 49 50 51
3 49 51 40
3 52 13 12
3 52 12 53
3 52 35 13
3 52 53 54
3 52 44 35
3 52 54 44
3 55 15 14
3 55 14 56
3 55 36 15
3 55 56 57
3 55 58 36
3 55 57 58
3 59 20 35
3 59 32 20
3 59 35 45
3 59 39 32
3 59 45 60
3 59 60 39
3 37 61 42
3 43 27 26
3 47 30 29
3 38 62 48
3 53 12 27
3 56 14 30
3 63 24 40
3 63 37 24
3 63 40 64
3 63 61 37
3 63 64 65
3 63 65 61
3 66 27 43
3 66 43 67
3 66 53 27
3 66 67 68
3 66 69 53
3 66 68 69
3 70 30 47
3 70 47 71
3 70 56 30
3 70 71 72
3 70 73 56
3 70 72 73
3 74 34 39
3 74 38 34
3 74 39 75
3 74 62 38
3 74 75 76
3 74 76 62
3 42 67 43
3 48 71 47
3 58 50 36
3 51 50 77
3 54 53 69
3 57 56 73
3 60 45 78
3 61 65 79
3 64 40 51
3 69 68 80
3 73 72 81
3 75 39 60
3 82 42 61
3 82 61 79
3 82 67 42
3 82 79 83
3 82 84 67
3 82 83 84
3 68 67 84
3 85 51 77
3 85 64 51
3 85 77 86
3 85 87 64
3 85 86 87
3 88 54 69
3 88 69 80
3 88 89 54
3 88 80 90
3 88 90 89
3 77 91 86
3 89 44 54
3 92 50 58
3 92 58 93
3 92 77 50
3 92 93 94
3 92 91 77
3 92 94 91
3 95 44 89
3 95 45 44
3 95 89 96
3 95 78 45
3 95 96 97
3 95 97 78
3 93 58 57
3 78 97 98
3 99 57 73
3 99 73 81
3 99 93 57
3 99 81 100
3 99 100 93
3 101 60 78
3 101 75 60
3 101 78 98
3 101 102 75
3 101 98 102
3 76 103 62
3 104 48 62
3 104 71 48
3 104 62 103
3 104 105 71
3 104 103 106
3 104 106 105
3 87 65 64
3 80 107 90
3 81 108 100
3 102 76 75
3 105 72 71
3 86 109 87
3 90 96 89
3 100 94 93
3 98 110 102
3 91 94 111
3 83 79 112
3 106 103 113
3 114 65 87
3 114 87 109
3 114 79 65
3 114 109 115
3 114 112 79
3 114 115 112
3 116 68 84
3 116 80 68
3 116 84 117
3 116 107 80
3 116 117 118
3 116 118 107
3 119 72 105
3 119 81 72
3 119 105 120
3 119 108 81
3 119 120 121
3 119 121 108
3 122 76 102
3 122 102 110
3 122 103 76
3 122 110 123
3 122 113 103
3 122 123 113
3 109 124 115
3 110 125 123
3 112 115 126
3 117 84 83
3 120 105 106
3 113 123 127
3 128 86 91
3 128 91 111
3 128 109 86
3 128 111 129
3 128 124 109
3 128 129 124
3 130 90 107
3 130 96 90
3 130 107 131
3 130 132 96
3 130 131 133
3 130 133 132
3 134 100 108
3 134 94 100
3 134 108 135
3 134 111 94
3 134 135 136
3 134 136 111
3 137 98 97
3 137 97 132
3 137 110 98
3 137 132 138
3 137 125 110
3 137 138 125
3 139 83 112
3 139 112 126
3 139 117 83
3 139 126 140
3 139 140 117
3 132 97 96
3 141 106 113
3 141 120 106
3 141 113 127
3 141 142 120
3 141 127 142
3 121 135 108
3 131 107 118
3 126 143 140
3 140 118 117
3 142 121 120
3 127 144 142
3 129 111 136
3 133 131 145
3 136 135 146
3 138 132 133
3 147 115 124
3 147 124 148
3 147 126 115
3 147 143 126
3 147 148 149
3 147 149 143
3 150 118 140
3 150 131 118
3 150 140 143
3 150 143 151
3 150 145 131
3 150 151 145
3 152 121 142
3 152 135 121
3 152 142 144
3 152 144 153
3 152 146 135
3 152 153 146
3 154 123 125
3 154 125 155
3 154 127 123
3 154 144 127
3 154 155 156
3 154 156 144
3 157 129 136
3 157 136 146
3 157 148 129
3 157 146 158
3 157 158 148
3 159 133 145
3 159 138 133
3 159 145 160
3 159 155 138
3 159 160 155
3 148 124 129
3 145 151 160
3 146 153 158
3 155 125 138
3 149 151 143
3 153 144 156
3 158 149 148
3 160 156 155
3 161 149 158
3 161 151 149
3 161 153 156
3 161 156 160
3 161 158 153
3 161 160 151
