ply
format ascii 1.0
comment Created by Open3D
element vertex 162
property double x
property double y
property double z
property double nx
property double ny
property double nz
element face 320
property list uchar uint vertex_indices
end_header
-0.111523 0.185859 0.075367 0.865494 0.496524 0.0662122
-0.108015 0.170515 0.056766 0.911328 -0.21868 -0.348801
-0.118809 0.194561 0.0457479 0.671501 0.538625 -0.50889
-0.125329 0.19361 0.0960597 0.732298 0.651864 0.197009
-0.109506 0.173798 0.100949 0.853809 0.514091 0.0819788
-0.132587 0.208471 0.0730343 0.705647 0.707738 0.0342074
-0.105203 0.162042 0.0803451 0.954054 -0.207239 -0.216411
-0.120853 0.150838 0.0696625 0.678234 -0.663311 -0.316255
-0.147347 0.217934 0.0976031 0.724611 0.674323 0.142222
-0.146471 0.21322 0.046515 0.277203 0.644421 -0.712658
-0.100324 0.150726 0.102952 0.941449 -0.19574 -0.274517
-0.126227 0.169638 0.0318418 0.53073 -0.132706 -0.837087
-0.169819 0.236775 0.108051 -0.0596223 0.953959 0.293949
-0.154453 0.222761 0.131859 0.511867 0.834111 0.205551
-0.13356 0.135622 0.0749612 0.681938 -0.654609 -0.326265
-0.136889 0.140544 0.0576873 0.682506 -0.658155 -0.317834
-0.120578 0.180618 0.122715 0.736755 0.667578 0.107389
-0.125012 0.155204 0.049762 0.687345 -0.624764 -0.370443
-0.138546 0.147799 0.0376729 0.601581 -0.558233 -0.571381
-0.137505 0.201214 0.119224 0.772118 0.627497 0.100408
-0.134231 0.195668 0.14749 0.769398 0.570283 0.287759
-0.144958 0.185742 0.0353683 0.0316806 0.341028 -0.939519
-0.14749 0.161704 0.0288791 0.150602 0.0356239 -0.987953
-0.166209 0.195304 0.0411882 -0.0333955 0.352553 -0.935196
-0.166709 0.173623 0.0338854 -0.0618611 0.288482 -0.955485
-0.156576 0.234283 0.0721502 0.404604 0.894753 -0.188977
-0.175984 0.223366 0.0532912 -0.146211 0.656331 -0.74017
-0.194369 0.233316 0.0772185 -0.6785 0.734363 -0.018716
-0.118362 0.143582 0.0885932 0.643629 -0.645716 -0.410845
-0.114461 0.133994 0.106209 0.637454 -0.63742 -0.432837
-0.131044 0.126363 0.0958978 0.635931 -0.64616 -0.421983
-0.102769 0.163296 0.125248 0.892973 0.42385 0.151494
-0.116375 0.173737 0.147969 0.722763 0.384664 0.57415
-0.0985081 0.141012 0.124827 0.960884 -0.268637 -0.0673599
-0.107268 0.146715 0.145172 0.706545 0.0798544 0.703149
-0.158491 0.214683 0.171165 -0.000733292 0.617497 0.786573
-0.148234 0.134236 0.0466198 0.694439 -0.586296 -0.417146
-0.186315 0.180529 0.0357228 -0.0372134 0.282475 -0.958553
-0.104685 0.123023 0.142811 0.865828 -0.337124 0.369715
-0.131549 0.152448 0.155612 0.365433 -0.0805481 0.927346
-0.166886 0.15266 0.0268684 0.0256649 0.204644 -0.9785
-0.189311 0.201203 0.0427319 -0.176817 0.460853 -0.869684
-0.207519 0.188577 0.0413698 -0.691074 0.376448 -0.617013
-0.203955 0.209249 0.0577477 -0.834921 0.468127 -0.289421
-0.182533 0.189025 0.149063 -0.905851 0.196822 0.375096
-0.170783 0.173247 0.171026 -0.34421 0.0479726 0.937667
-0.112249 0.124307 0.124142 0.7303 -0.499131 -0.466402
-0.128432 0.11627 0.114004 0.622232 -0.526248 -0.57956
-0.115751 0.104939 0.129906 0.813501 -0.42798 -0.393764
-0.152843 0.141258 0.029756 0.509934 -0.37457 -0.77438
-0.162225 0.12551 0.0378782 0.629221 -0.558569 -0.540447
-0.166783 0.134348 0.0238562 0.407196 -0.176425 -0.89614
-0.179295 0.218215 0.133948 -0.714735 0.598071 0.362583
-0.18982 0.212646 0.104991 -0.896526 0.311934 0.314545
-0.18672 0.194624 0.12374 -0.947008 0.164653 0.2758
-0.145967 0.126739 0.0630064 0.842824 -0.444603 -0.303278
-0.147712 0.118362 0.0811501 0.897411 -0.389236 -0.207728
-0.147553 0.110425 0.0652873 0.956856 -0.0549458 -0.285322
-0.154623 0.116442 0.0530242 0.717974 -0.332595 -0.61147
-0.140688 0.177596 0.163392 0.467216 0.037532 0.883346
-0.153458 0.15627 0.163543 0.288462 -0.143091 0.946739
-0.203604 0.170388 0.0336741 -0.330758 0.329743 -0.884234
-0.119867 0.106466 0.147059 0.570048 -0.33288 0.751157
-0.184437 0.161343 0.0320201 -0.0260657 0.279188 -0.959882
-0.182956 0.144204 0.0258675 0.0295895 0.337385 -0.940902
-0.201253 0.149435 0.0270574 -0.053118 0.395935 -0.916741
-0.198977 0.201432 0.0805545 -0.950797 0.162617 0.263708
-0.206487 0.186657 0.0619203 -0.960611 0.187251 0.205341
-0.202036 0.177189 0.0834672 -0.952204 0.135502 0.273765
-0.195947 0.189605 0.0995016 -0.946733 0.147686 0.286157
-0.143818 0.108227 0.102897 0.849004 -0.295803 -0.437828
-0.133045 0.0972049 0.121325 0.744963 -0.172273 -0.644479
-0.142834 0.084242 0.102978 0.939535 0.187666 -0.286455
-0.148491 0.0983137 0.0855225 0.988945 0.13684 -0.057125
-0.124314 0.129261 0.15164 0.324088 -0.0822698 0.942443
-0.14384 0.133937 0.156888 0.285665 -0.110258 0.951966
-0.141084 0.113529 0.154672 0.246743 -0.170116 0.954033
-0.175148 0.115841 0.0308265 0.643993 -0.521559 -0.559687
-0.178202 0.15039 0.169408 -0.382147 -0.00945643 0.924053
-0.218932 0.155992 0.03518 -0.82238 0.419613 -0.384209
-0.198785 0.165888 0.0990297 -0.951751 0.101098 0.289741
-0.138574 0.0740118 0.0815001 0.949132 -0.00822863 -0.314771
-0.213505 0.171421 0.047837 -0.95842 0.283512 -0.0324576
-0.215225 0.153918 0.0530199 -0.939549 0.169588 0.29747
-0.208976 0.164381 0.0666886 -0.944507 0.139215 0.297533
-0.1816 0.126937 0.0188814 0.318509 0.00649695 -0.947898
-0.191598 0.1084 0.0172641 0.458955 -0.315511 -0.830551
-0.199974 0.131241 0.0186913 0.0746256 0.313205 -0.946749
-0.193051 0.1756 0.114769 -0.946391 0.120158 0.299846
-0.187599 0.170822 0.133926 -0.961347 0.140321 0.236904
-0.1939 0.156798 0.117357 -0.956954 0.128022 0.260482
-0.186645 0.0993457 0.0363795 0.612716 -0.472205 -0.633721
-0.170535 0.108579 0.0463342 0.579544 -0.377567 -0.7222
-0.157538 0.0985005 0.0543753 0.606895 -0.144697 -0.7815
-0.171931 0.0853057 0.0493244 0.453029 -0.242134 -0.857984
-0.184654 0.162669 0.153065 -0.914813 0.166162 0.368115
-0.191196 0.150544 0.135149 -0.961174 0.162328 0.22315
-0.188008 0.139662 0.154429 -0.905835 0.116815 0.407207
-0.179898 0.126563 0.165825 -0.311791 -0.140915 0.939643
-0.145325 0.0910171 0.0670006 0.899053 0.0134425 -0.437635
-0.156864 0.0736826 0.0614807 0.602558 -0.292208 -0.742657
-0.162965 0.136701 0.164059 0.262654 -0.142573 0.954299
-0.160084 0.117618 0.160039 0.233555 -0.184367 0.954705
-0.137849 0.0914611 0.148112 0.313675 -0.325326 0.89206
-0.121032 0.0876075 0.135855 0.896348 -0.417565 0.149001
-0.129585 0.0728401 0.12185 0.965063 -0.0434324 -0.258396
-0.133364 0.0731754 0.139172 0.59416 -0.365276 0.716623
-0.199658 0.148008 0.101841 -0.942405 0.162441 0.29238
-0.153419 0.0531762 0.076414 0.663767 -0.451215 -0.596506
-0.215764 0.11325 0.0110699 -0.24994 0.0169395 -0.968113
-0.177432 0.107423 0.161161 -0.135764 -0.251021 0.958414
-0.194526 0.0736139 0.044461 0.423649 -0.41141 -0.807009
-0.222465 0.137763 0.040926 -0.960376 0.212655 0.180158
-0.155618 0.0799815 0.147833 0.194696 -0.301441 0.933395
-0.220073 0.138602 0.0222248 -0.5965 0.411761 -0.688942
-0.229172 0.117856 0.0331083 -0.980756 0.193563 -0.0255171
-0.204117 0.157155 0.0848772 -0.94842 0.120858 0.293078
-0.209091 0.147022 0.0719749 -0.937923 0.158989 0.308259
-0.206553 0.13792 0.0868154 -0.940018 0.185371 0.286364
-0.136003 0.0585638 0.100133 0.926286 -0.159967 -0.341183
-0.130922 0.0474219 0.125042 0.856251 -0.419757 0.301064
-0.151029 0.0286944 0.103854 0.657158 -0.712662 -0.245471
-0.157903 0.0990821 0.154612 0.185401 -0.288771 0.939275
-0.176401 0.0856009 0.152685 -0.00078634 -0.289274 0.957246
-0.234252 0.0852598 0.0248086 -0.837936 -0.297255 -0.457715
-0.1955 0.0972468 0.15221 -0.710446 -0.0377687 0.702738
-0.22069 0.118862 0.05441 -0.93536 0.156557 0.317164
-0.176562 0.0623711 0.146534 0.0884464 -0.215519 0.972486
-0.206202 0.0879095 0.0235584 0.336439 -0.521199 -0.784322
-0.217993 0.0671665 0.0351991 -0.0986829 -0.580472 -0.808279
-0.196484 0.13903 0.119071 -0.95038 0.177678 0.255362
-0.203787 0.129069 0.104046 -0.938576 0.192531 0.286371
-0.194086 0.129664 0.13638 -0.958123 0.166026 0.233319
-0.19929 0.122374 0.120294 -0.941581 0.196924 0.273216
-0.174594 0.058674 0.0566285 0.416691 -0.387486 -0.822328
-0.179875 0.0294148 0.0717691 0.379091 -0.664328 -0.644174
-0.199563 0.0484815 0.053371 0.253932 -0.514515 -0.819019
-0.191634 0.118848 0.15346 -0.836657 0.0653925 0.543811
-0.197296 0.111084 0.1379 -0.948559 0.177469 0.262187
-0.216024 0.13662 0.0586306 -0.928147 0.174998 0.328512
-0.213395 0.12696 0.0734429 -0.933218 0.191699 0.303902
-0.151492 0.0582224 0.140473 0.314369 -0.278411 0.907557
-0.164009 0.0288473 0.138441 0.328704 -0.557501 0.76233
-0.217473 0.10812 0.0716509 -0.944751 0.154731 0.288972
-0.200766 0.0426043 0.143953 -0.557897 -0.251881 0.790764
-0.206802 0.110496 0.104671 -0.945193 0.179737 0.272591
-0.217481 0.0203226 0.0724206 -0.582068 -0.733577 -0.350802
-0.224605 0.0981008 0.0510237 -0.948992 0.112548 0.29453
-0.227827 0.0737519 0.0499656 -0.996909 -0.0627666 0.0472634
-0.220611 0.0835103 0.0721249 -0.953379 0.131663 0.271541
-0.209617 0.118988 0.0885637 -0.941314 0.177835 0.286885
-0.212976 0.0974206 0.0916632 -0.947618 0.153862 0.279908
-0.195637 0.00322928 0.113516 -0.172054 -0.966381 0.191065
-0.216979 0.040719 0.104348 -0.94845 -0.115396 0.295174
-0.196929 0.0742234 0.147971 -0.592136 -0.0852453 0.801317
-0.201917 0.0897821 0.133843 -0.945332 0.104669 0.308858
-0.207714 0.0693946 0.123523 -0.939353 0.0916939 0.330467
-0.227523 0.0455754 0.0488919 -0.734644 -0.425974 -0.528058
-0.223383 0.0574943 0.0764983 -0.974251 0.0113047 0.225183
-0.203353 0.104787 0.12175 -0.945088 0.183952 0.270133
-0.208767 0.0894365 0.110744 -0.952835 0.139575 0.269489
-0.214816 0.0736826 0.0962209 -0.951607 0.13111 0.277948
3 0 1 2
3 0 3 4
3 0 2 5
3 0 5 3
3 0 6 1
3 0 4 6
3 1 6 7
3 3 5 8
3 2 9 5
3 6 4 10
3 11 2 1
3 8 12 13
3 7 14 15
3 16 4 3
3 17 1 7
3 17 11 1
3 17 7 15
3 17 18 11
3 17 15 18
3 19 3 8
3 19 8 13
3 19 16 3
3 19 13 20
3 19 20 16
3 21 2 11
3 21 11 22
3 21 9 2
3 21 23 9
3 21 22 24
3 21 24 23
3 25 5 9
3 25 8 5
3 25 9 26
3 25 26 27
3 25 12 8
3 25 27 12
3 28 6 10
3 28 7 6
3 28 10 29
3 28 29 30
3 28 14 7
3 28 30 14
3 31 4 16
3 31 16 32
3 31 10 4
3 31 33 10
3 31 32 34
3 31 34 33
3 18 22 11
3 13 35 20
3 15 36 18
3 20 32 16
3 23 24 37
3 26 9 23
3 29 10 33
3 33 34 38
3 32 39 34
3 24 22 40
3 41 23 37
3 41 26 23
3 41 37 42
3 41 43 26
3 41 42 43
3 35 44 45
3 46 29 33
3 46 33 38
3 46 47 29
3 46 38 48
3 46 48 47
3 49 18 36
3 49 22 18
3 49 36 50
3 49 40 22
3 49 50 51
3 49 51 40
3 52 13 12
3 52 12 53
3 52 35 13
3 52 53 54
3 52 44 35
3 52 54 44
3 55 15 14
3 55 14 56
3 55 36 15
3 55 56 57
3 55 58 36
3 55 57 58
3 59 20 35
3 59 32 20
3 59 35 45
3 59 39 32
3 59 45 60
3 59 60 39
3 37 61 42
3 43 27 26
3 47 30 29
3 38 62 48
3 53 12 27
3 56 14 30
3 63 24 40
3 63 37 24
3 63 40 64
3 63 61 37
3 63 64 65
3 63 65 61
3 66 27 43
3 66 43 67
3 66 53 27
3 66 67 68
3 66 69 53
3 66 68 69
3 70 30 47
3 70 47 71
3 70 56 30
3 70 71 72
3 70 73 56
3 70 72 73
3 74 34 39
3 74 38 34
3 74 39 75
3 74 62 38
3 74 75 76
3 74 76 62
3 42 67 43
3 48 71 47
3 58 50 36
3 51 50 77
3 54 53 69
3 57 56 73
3 60 45 78
3 61 65 79
3 64 40 51
3 69 68 80
3 73 72 81
3 75 39 60
3 82 42 61
3 82 61 79
3 82 67 42
3 82 79 83
3 82 84 67
3 82 83 84
3 68 67 84
3 85 51 77
3 85 64 51
3 85 77 86
3 85 87 64
3 85 86 87
3 88 54 69
3 88 69 80
3 88 89 54
3 88 80 90
3 88 90 89
3 77 91 86
3 89 44 54
3 92 50 58
3 92 58 93
3 92 77 50
3 92 93 94
3 92 91 77
3 92 94 91
3 95 44 89
3 95 45 44
3 95 89 96
3 95 78 45
3 95 96 97
3 95 97 78
3 93 58 57
3 78 97 98
3 99 57 73
3 99 73 81
3 99 93 57
3 99 81 100
3 99 100 93
3 101 60 78
3 101 75 60
3 101 78 98
3 101 102 75
3 101 98 102
3 76 103 62
3 104 48 62
3 104 71 48
3 104 62 103
3 104 105 71
3 104 103 106
3 104 106 105
3 87 65 64
3 80 107 90
3 81 108 100
3 102 76 75
3 105 72 71
3 86 109 87
3 90 96 89
3 100 94 93
3 98 110 102
3 91 94 111
3 83 79 112
3 106 103 113
3 114 65 87
3 114 87 109
3 114 79 65
3 114 109 115
3 114 112 79
3 114 115 112
3 116 68 84
3 116 80 68
3 116 84 117
3 116 107 80
3 116 117 118
3 116 118 107
3 119 72 105
3 119 81 72
3 119 105 120
3 119 108 81
3 119 120 121
3 119 121 108
3 122 76 102
3 122 102 110
3 122 103 76
3 122 110 123
3 122 113 103
3 122 123 113
3 109 124 115
3 110 125 123
3 112 115 126
3 117 84 83
3 120 105 106
3 113 123 127
3 128 86 91
3 128 91 111
3 128 109 86
3 128 111 129
3 128 124 109
3 128 129 124
3 130 90 107
3 130 96 90
3 130 107 131
3 130 132 96
3 130 131 133
3 130 133 132
3 134 100 108
3 134 94 100
3 134 108 135
3 134 111 94
3 134 135 136
3 134 136 111
3 137 98 97
3 137 97 132
3 137 110 98
3 137 132 138
3 137 125 110
3 137 138 125
3 139 83 112
3 139 112 126
3 139 117 83
3 139 126 140
3 139 140 117
3 132 97 96
3 141 106 113
3 141 120 106
3 141 113 127
3 141 142 120
3 141 127 142
3 121 135 108
3 131 107 118
3 126 143 140
3 140 118 117
3 142 121 120
3 127 144 142
3 129 111 136
3 133 131 145
3 136 135 146
3 138 132 133
3 147 115 124
3 147 124 148
3 147 126 115
3 147 143 126
3 147 148 149
3 147 149 143
3 150 118 140
3 150 131 118
3 150 140 143
3 150 143 151
3 150 145 131
3 150 151 145
3 152 121 142
3 152 135 121
3 152 142 144
3 152 144 153
3 152 146 135
3 152 153 146
3 154 123 125
3 154 125 155
3 154 127 123
3 154 144 127
3 154 155 156
3 154 156 144
3 157 129 136
3 157 136 146
3 157 148 129
3 157 146 158
3 157 158 148
3 159 133 145
3 159 138 133
3 159 145 160
3 159 155 138
3 159 160 155
3 148 124 129
3 145 151 160
3 146 153 158
3 155 125 138
3 149 151 143
3 153 144 156
3 158 149 148
3 160 156 155
3 161 149 158
3 161 151 149
3 161 153 156
3 161 156 160
3 161 158 153
3 161 160 151
