ply
format ascii 1.0
comment Created by Open3D
element vertex 162
property double x
property double y
property double z
property double nx
property double ny
property double nz
element face 320
property list uchar uint vertex_indices
end_header
-0.14897 0.186782 0.113539 -0.203963 0.590392 0.78092
-0.136541 0.168259 0.123344 -0.00612012 -0.188219 0.982108
-0.117356 0.188034 0.115797 0.395388 0.485868 0.779488
-0.162031 0.197269 0.0935813 -0.247177 0.754857 0.607532
-0.176069 0.180826 0.1077 -0.210771 0.60957 0.764199
-0.135035 0.205924 0.0935422 -0.0755361 0.770998 0.632343
-0.161175 0.165437 0.118772 -0.138449 -0.143863 0.979865
-0.149268 0.150553 0.107761 -0.0720925 -0.638011 0.766646
-0.150974 0.218804 0.0713818 -0.188928 0.763976 0.616966
-0.105232 0.20329 0.0887005 0.727953 0.501533 0.467494
-0.186217 0.159873 0.116568 -0.0782741 -0.146631 0.98609
-0.108248 0.160039 0.114094 0.580063 -0.251755 0.774691
-0.149308 0.236894 0.0461012 -0.0248235 0.982618 -0.183973
-0.179275 0.230114 0.0535385 -0.144773 0.909512 0.389652
-0.153956 0.13555 0.0945705 -0.0618947 -0.631325 0.773045
-0.135834 0.13623 0.0967642 -0.0706935 -0.632882 0.771014
-0.19117 0.190938 0.0900212 -0.162077 0.751229 0.639832
-0.128604 0.150037 0.110026 -0.0156257 -0.611321 0.791228
-0.11513 0.138766 0.101334 0.211628 -0.59952 0.771874
-0.177901 0.208324 0.0743832 -0.175924 0.714685 0.676961
-0.206298 0.209406 0.0686473 -0.361653 0.699346 0.616541
-0.101982 0.174385 0.094662 0.938885 0.131392 0.31817
-0.100984 0.149383 0.0951845 0.874503 -0.162441 0.45701
-0.0986369 0.182604 0.0723432 0.957334 0.136417 0.25476
-0.0969376 0.159936 0.0749663 0.969325 0.0667647 0.236544
-0.120786 0.228164 0.0701991 0.266185 0.871437 0.411999
-0.10013 0.211382 0.0582312 0.88423 0.461005 0.0749218
-0.114265 0.224202 0.032827 0.398237 0.634561 -0.662375
-0.169225 0.147874 0.104327 0.0298551 -0.645142 0.763479
-0.188952 0.1428 0.102729 0.0539991 -0.642517 0.764367
-0.17625 0.131362 0.0905893 0.0423533 -0.648818 0.759765
-0.20304 0.176619 0.106685 -0.308353 0.541295 0.782252
-0.217389 0.190176 0.0861751 -0.656217 0.576026 0.487415
-0.209274 0.15537 0.11164 -0.292731 -0.170494 0.940872
-0.224031 0.164345 0.0966443 -0.843295 0.306372 0.441576
-0.216253 0.230326 0.0374408 -0.577684 0.768986 -0.273756
-0.123702 0.126483 0.0897795 0.0345275 -0.583312 0.811514
-0.0910511 0.164896 0.0555707 0.963264 0.0629597 0.261075
-0.228305 0.141129 0.100679 -0.68364 -0.152888 0.713626
-0.224948 0.169517 0.0701138 -0.98539 0.161994 0.0525847
-0.095428 0.13806 0.0777788 0.944022 -0.0100163 0.329731
-0.091663 0.186144 0.0497662 0.966186 0.240022 0.0942043
-0.0879222 0.171615 0.0334039 0.868372 0.156666 -0.470518
-0.0991625 0.195599 0.0308181 0.63157 0.300711 -0.714627
-0.194732 0.198036 0.0226405 -0.025029 0.173288 -0.984553
-0.222326 0.188752 0.0273052 -0.749549 0.211592 -0.627221
-0.208485 0.137517 0.0994356 0.0899933 -0.505469 0.858139
-0.196162 0.125765 0.0876338 0.220586 -0.568002 0.792916
-0.21738 0.119588 0.0949605 0.0148466 -0.411674 0.911211
-0.105068 0.129151 0.0905558 0.4706 -0.475153 0.743482
-0.113495 0.114603 0.0796309 0.174648 -0.590151 0.788175
-0.0970634 0.119653 0.0794838 0.661439 -0.320394 0.67812
-0.174778 0.223446 0.0295071 0.02477 0.580738 -0.813714
-0.146212 0.210641 0.0289885 0.0555724 0.272916 -0.960432
-0.168762 0.197542 0.0265689 0.0713305 0.116139 -0.990668
-0.141301 0.122996 0.0869545 -0.0814854 -0.405061 0.910652
-0.159518 0.118597 0.0797998 -0.172897 -0.324749 0.929863
-0.146831 0.107486 0.0852983 -0.039262 -0.0106752 0.999172
-0.131938 0.109905 0.0823099 0.26743 -0.376562 0.886952
-0.223343 0.194602 0.058088 -0.947308 0.278153 0.158866
-0.224725 0.172551 0.0466993 -0.994977 0.0971113 -0.024295
-0.08636 0.15273 0.0402111 0.994778 0.0928883 -0.0423005
-0.231596 0.124326 0.0855279 -0.94511 -0.0986035 0.31152
-0.0927953 0.145685 0.0592077 0.960333 0.0606983 0.272172
-0.0916692 0.127888 0.0631794 0.939921 0.127331 0.316759
-0.0859819 0.131226 0.0452894 0.956656 0.180347 0.22866
-0.123581 0.193484 0.0285207 0.0831448 0.111138 -0.990321
-0.107655 0.174303 0.0278829 0.145861 0.121363 -0.981833
-0.131147 0.170256 0.0255471 0.0678011 0.0868489 -0.993912
-0.14481 0.186431 0.0257521 0.0576297 0.101943 -0.99312
-0.183187 0.113885 0.0768961 0.0764053 -0.289074 0.954253
-0.206085 0.108345 0.0815977 0.328101 -0.225193 0.917409
-0.189301 0.0907373 0.078647 0.0250967 0.222596 0.974588
-0.168116 0.100004 0.0783712 -0.213599 0.228204 0.949894
-0.229022 0.146949 0.0790505 -0.987228 0.159079 0.0086714
-0.226839 0.150491 0.05872 -0.991095 0.129792 -0.0297695
-0.230514 0.130512 0.0627556 -0.99556 0.0679184 -0.0651784
-0.105395 0.10229 0.069988 0.196792 -0.556787 0.807007
-0.224062 0.165416 0.0216009 -0.739264 0.148795 -0.656773
-0.0865603 0.137417 0.0257226 0.70362 0.234529 -0.670757
-0.149194 0.163008 0.0240511 0.0446885 0.0569672 -0.997376
-0.173221 0.0766355 0.0899028 0.00142795 0.0274504 0.999622
-0.0961859 0.155713 0.0262741 0.387642 0.163633 -0.907171
-0.104637 0.139662 0.0236052 0.0502622 0.126422 -0.990703
-0.116633 0.153448 0.0247868 0.0444327 0.0964248 -0.994348
-0.0897667 0.109773 0.0673033 0.779799 -0.163752 0.604235
-0.0896886 0.0903475 0.059006 0.551979 -0.435538 0.711074
-0.0830049 0.111906 0.0498143 0.925909 0.107514 0.362125
-0.163125 0.176456 0.0241099 0.0383069 0.0782277 -0.996199
-0.183592 0.176552 0.0233196 0.105728 0.0825652 -0.990962
-0.169756 0.158679 0.0231413 0.0797017 0.076204 -0.993902
-0.11099 0.0862313 0.0579074 0.28637 -0.528301 0.799306
-0.122836 0.099096 0.0696569 0.400689 -0.459203 0.792831
-0.136598 0.0924706 0.0797498 0.502874 -0.243081 0.829476
-0.130744 0.0770083 0.0681992 0.596646 -0.370913 0.711644
-0.204093 0.173097 0.0202809 -0.0232176 0.141054 -0.98973
-0.188486 0.156749 0.0202374 0.123634 0.100966 -0.987178
-0.209844 0.150702 0.0174801 -0.0738127 0.102596 -0.991981
-0.225946 0.141338 0.0219792 -0.806391 0.0322764 -0.590502
-0.153731 0.0892678 0.0875445 0.135118 0.0164792 0.990693
-0.149298 0.0699984 0.0789916 0.433037 -0.378292 0.818153
-0.227011 0.152639 0.0382207 -0.994024 0.0964339 -0.0511668
-0.228741 0.133568 0.0429051 -0.995603 0.0527989 -0.0773796
-0.230722 0.108035 0.0686928 -0.995776 -0.0887739 0.0234677
-0.225421 0.103481 0.0886691 -0.508487 -0.275291 0.815877
-0.213448 0.0851947 0.0855648 -0.06383 0.00720686 0.997935
-0.228207 0.0888501 0.0764397 -0.928294 -0.134869 0.346527
-0.155803 0.14617 0.0229565 0.0541115 0.118076 -0.991529
-0.169027 0.0537026 0.0782046 0.241621 -0.494332 0.835018
-0.0755049 0.0910813 0.0379307 0.972851 -0.219934 0.0720446
-0.22697 0.122028 0.0264785 -0.903297 -0.0513203 -0.425936
-0.122223 0.0621509 0.0487688 0.517979 -0.527349 0.673499
-0.095157 0.120585 0.0211832 0.175105 0.140597 -0.974459
-0.227839 0.0948999 0.0523598 -0.992216 -0.0696352 -0.103244
-0.0784249 0.11762 0.0293933 0.91459 0.185697 -0.359224
-0.0906809 0.0988509 0.0180307 0.366461 0.0754221 -0.927372
-0.136614 0.150895 0.0238316 0.0453327 0.0772239 -0.995983
-0.125631 0.137735 0.0236003 0.0372788 0.118645 -0.992237
-0.14227 0.132385 0.0215828 0.0644285 0.139285 -0.988154
-0.194887 0.0659518 0.0869288 -0.00361773 -0.127975 0.991771
-0.222073 0.0610755 0.0841742 -0.637184 -0.24894 0.729401
-0.200927 0.0361362 0.072563 -0.142841 -0.672901 0.725811
-0.22883 0.114648 0.0473575 -0.991797 -0.0570845 -0.114371
-0.224685 0.0991355 0.0309314 -0.952194 -0.0739798 -0.296401
-0.0892897 0.0648763 0.0170197 0.604543 -0.478613 -0.636755
-0.215684 0.108251 0.0125877 -0.442569 0.0377387 -0.89594
-0.112659 0.105353 0.0192208 0.0277057 0.118488 -0.992569
-0.224523 0.0752498 0.0335628 -0.975584 0.0105997 -0.219371
-0.0959844 0.0702339 0.043887 0.497139 -0.638479 0.587535
-0.108124 0.051337 0.0297333 0.636637 -0.748584 0.185247
-0.17481 0.141527 0.0207722 0.0943244 0.123995 -0.98779
-0.161123 0.127821 0.0190087 0.0656999 0.146391 -0.987043
-0.193746 0.13644 0.0178427 0.114215 0.107083 -0.987668
-0.179076 0.125325 0.0183113 0.0797981 0.147484 -0.98584
-0.143053 0.0524554 0.0642815 0.539945 -0.508204 0.670961
-0.162429 0.0267607 0.0554734 0.320674 -0.742433 0.588185
-0.134936 0.0391411 0.0420376 0.555703 -0.648481 0.520256
-0.212836 0.129902 0.0150886 -0.233077 0.0897492 -0.968308
-0.198626 0.11839 0.0149718 0.0874263 0.125465 -0.988239
-0.113713 0.124003 0.0216658 0.0194685 0.139619 -0.990014
-0.130486 0.118117 0.0197623 0.0477067 0.149955 -0.987541
-0.227505 0.072647 0.0593849 -0.999053 -0.0398297 0.0175216
-0.228876 0.0423416 0.049216 -0.936204 -0.340437 0.0873256
-0.13211 0.0990043 0.0171367 0.0561191 0.109604 -0.99239
-0.219554 0.052875 0.012164 -0.621169 -0.134373 -0.772071
-0.165233 0.109606 0.0166079 0.0773523 0.130279 -0.988455
-0.153834 0.0139814 0.0199758 0.324081 -0.850993 -0.413259
-0.11332 0.0840501 0.0173273 0.0421764 0.0694121 -0.996696
-0.117198 0.059845 0.0154715 0.242837 -0.15933 -0.956893
-0.137489 0.0748867 0.0148813 0.0692887 0.0825153 -0.994178
-0.147488 0.11406 0.01879 0.0625361 0.131944 -0.989283
-0.154495 0.0934364 0.0153784 0.0651413 0.10649 -0.992178
-0.202448 0.00865389 0.028132 -0.35558 -0.915144 -0.189934
-0.178561 0.0407234 0.00953186 -0.0131459 -0.151561 -0.988361
-0.216852 0.0848407 0.0133997 -0.580663 0.0258606 -0.813733
-0.198584 0.0963417 0.0126431 0.0259645 0.0652615 -0.997531
-0.19219 0.073699 0.0111686 0.00111332 0.0579912 -0.998317
-0.123044 0.0323068 0.0170949 0.607395 -0.607447 -0.511937
-0.146914 0.0502863 0.0117745 0.0895613 -0.046556 -0.994893
-0.183401 0.108132 0.0146179 0.0805978 0.13385 -0.987719
-0.175284 0.0902701 0.013549 0.0729118 0.0898083 -0.993287
-0.163826 0.0711877 0.0130161 0.06271 0.0835552 -0.994528
3 0 1 2
3 0 3 4
3 0 2 5
3 0 5 3
3 0 6 1
3 0 4 6
3 1 6 7
3 3 5 8
3 2 9 5
3 6 4 10
3 11 2 1
3 8 12 13
3 7 14 15
3 16 4 3
3 17 1 7
3 17 11 1
3 17 7 15
3 17 18 11
3 17 15 18
3 19 3 8
3 19 8 13
3 19 16 3
3 19 13 20
3 19 20 16
3 21 2 11
3 21 11 22
3 21 9 2
3 21 23 9
3 21 22 24
3 21 24 23
3 25 5 9
3 25 8 5
3 25 9 26
3 25 26 27
3 25 12 8
3 25 27 12
3 28 6 10
3 28 7 6
3 28 10 29
3 28 29 30
3 28 14 7
3 28 30 14
3 31 4 16
3 31 16 32
3 31 10 4
3 31 33 10
3 31 32 34
3 31 34 33
3 18 22 11
3 13 35 20
3 15 36 18
3 20 32 16
3 23 24 37
3 26 9 23
3 29 10 33
3 33 34 38
3 32 39 34
3 24 22 40
3 41 23 37
3 41 26 23
3 41 37 42
3 41 43 26
3 41 42 43
3 35 44 45
3 46 29 33
3 46 33 38
3 46 47 29
3 46 38 48
3 46 48 47
3 49 18 36
3 49 22 18
3 49 36 50
3 49 40 22
3 49 50 51
3 49 51 40
3 52 13 12
3 52 12 53
3 52 35 13
3 52 53 54
3 52 44 35
3 52 54 44
3 55 15 14
3 55 14 56
3 55 36 15
3 55 56 57
3 55 58 36
3 55 57 58
3 59 20 35
3 59 32 20
3 59 35 45
3 59 39 32
3 59 45 60
3 59 60 39
3 37 61 42
3 43 27 26
3 47 30 29
3 38 62 48
3 53 12 27
3 56 14 30
3 63 24 40
3 63 37 24
3 63 40 64
3 63 61 37
3 63 64 65
3 63 65 61
3 66 27 43
3 66 43 67
3 66 53 27
3 66 67 68
3 66 69 53
3 66 68 69
3 70 30 47
3 70 47 71
3 70 56 30
3 70 71 72
3 70 73 56
3 70 72 73
3 74 34 39
3 74 38 34
3 74 39 75
3 74 62 38
3 74 75 76
3 74 76 62
3 42 67 43
3 48 71 47
3 58 50 36
3 51 50 77
3 54 53 69
3 57 56 73
3 60 45 78
3 61 65 79
3 64 40 51
3 69 68 80
3 73 72 81
3 75 39 60
3 82 42 61
3 82 61 79
3 82 67 42
3 82 79 83
3 82 84 67
3 82 83 84
3 68 67 84
3 85 51 77
3 85 64 51
3 85 77 86
3 85 87 64
3 85 86 87
3 88 54 69
3 88 69 80
3 88 89 54
3 88 80 90
3 88 90 89
3 77 91 86
3 89 44 54
3 92 50 58
3 92 58 93
3 92 77 50
3 92 93 94
3 92 91 77
3 92 94 91
3 95 44 89
3 95 45 44
3 95 89 96
3 95 78 45
3 95 96 97
3 95 97 78
3 93 58 57
3 78 97 98
3 99 57 73
3 99 73 81
3 99 93 57
3 99 81 100
3 99 100 93
3 101 60 78
3 101 75 60
3 101 78 98
3 101 102 75
3 101 98 102
3 76 103 62
3 104 48 62
3 104 71 48
3 104 62 103
3 104 105 71
3 104 103 106
3 104 106 105
3 87 65 64
3 80 107 90
3 81 108 100
3 102 76 75
3 105 72 71
3 86 109 87
3 90 96 89
3 100 94 93
3 98 110 102
3 91 94 111
3 83 79 112
3 106 103 113
3 114 65 87
3 114 87 109
3 114 79 65
3 114 109 115
3 114 112 79
3 114 115 112
3 116 68 84
3 116 80 68
3 116 84 117
3 116 107 80
3 116 117 118
3 116 118 107
3 119 72 105
3 119 81 72
3 119 105 120
3 119 108 81
3 119 120 121
3 119 121 108
3 122 76 102
3 122 102 110
3 122 103 76
3 122 110 123
3 122 113 103
3 122 123 113
3 109 124 115
3 110 125 123
3 112 115 126
3 117 84 83
3 120 105 106
3 113 123 127
3 128 86 91
3 128 91 111
3 128 109 86
3 128 111 129
3 128 124 109
3 128 129 124
3 130 90 107
3 130 96 90
3 130 107 131
3 130 132 96
3 130 131 133
3 130 133 132
3 134 100 108
3 134 94 100
3 134 108 135
3 134 111 94
3 134 135 136
3 134 136 111
3 137 98 97
3 137 97 132
3 137 110 98
3 137 132 138
3 137 125 110
3 137 138 125
3 139 83 112
3 139 112 126
3 139 117 83
3 139 126 140
3 139 140 117
3 132 97 96
3 141 106 113
3 141 120 106
3 141 113 127
3 141 142 120
3 141 127 142
3 121 135 108
3 131 107 118
3 126 143 140
3 140 118 117
3 142 121 120
3 127 144 142
3 129 111 136
3 133 131 145
3 136 135 146
3 138 132 133
3 147 115 124
3 147 124 148
3 147 126 115
3 147 143 126
3 147 148 149
3 147 149 143
3 150 118 140
3 150 131 118
3 150 140 143
3 150 143 151
3 150 145 131
3 150 151 145
3 152 121 142
3 152 135 121
3 152 142 144
3 152 144 153
3 152 146 135
3 152 153 146
3 154 123 125
3 154 125 155
3 154 127 123
3 154 144 127
3 154 155 156
3 154 156 144
3 157 129 136
3 157 136 146
3 157 148 129
3 157 146 158
3 157 158 148
3 159 133 145
3 159 138 133
3 159 145 160
3 159 155 138
3 159 160 155
3 148 124 129
3 145 151 160
3 146 153 158
3 155 125 138
3 149 151 143
3 153 144 156
3 158 149 148
3 160 156 155
3 161 149 158
3 161 151 149
3 161 153 156
3 161 156 160
3 161 158 153
3 161 160 151
