ply
format ascii 1.0
comment VCGLIB generated
element vertex 162
property float x
property float y
property float z
property float nx
property float ny
property float nz
element face 320
property list uchar int vertex_indices
end_header
0.0678309 0.0400139 -0.0345693 0.9392659 0.3319312 -0.08718578 
0.0675651 0.019712 -0.0480406 0.8385136 -0.4669522 -0.2808034 
0.0603363 0.0412449 -0.0653657 0.7206574 0.245564 -0.6483449 
0.0568109 0.0555834 -0.0168201 0.8423699 0.5388771 -0.00494257 
0.0693309 0.0354298 -0.0066284 0.9316905 0.3550019 -0.07698442 
0.0507827 0.0644624 -0.0430597 0.8157089 0.5508307 -0.1766482 
0.0703309 0.0178085 -0.0230523 0.8905038 -0.4267911 -0.1576465 
0.0523973 0.0070551 -0.0299283 0.5361424 -0.8355328 -0.1201508 
0.0393474 0.0829005 -0.0220761 0.8352757 0.546119 -0.06378401 
0.0363171 0.0640125 -0.0696895 0.3382484 0.358969 -0.8699019 
0.0745923 0.0125828 0.0017962 0.8765213 -0.429935 -0.216486 
0.0479899 0.0151755 -0.0714899 0.448991 -0.4542536 -0.7694548 
0.0210529 0.1076175 -0.0172275 0.1201356 0.9927121 0.009483969 
0.0352484 0.0983046 0.0094387 0.6567813 0.7526359 -0.04666493 
0.0376494 -0.0035409 -0.0203734 0.5406486 -0.8307855 -0.1322671 
0.0341578 -0.0031331 -0.038299 0.5411202 -0.8318747 -0.1231809 
0.0609082 0.0499306 0.012388 0.8439727 0.5278425 -0.09535345 
0.0478353 0.0063532 -0.0502036 0.5483254 -0.8159547 -0.1831859 
0.0325384 -0.0015888 -0.0595348 0.4629973 -0.7940301 -0.3938906 
0.0475202 0.071413 0.0033231 0.8715765 0.481752 -0.09093586 
0.0515186 0.0734989 0.0319612 0.8706035 0.4806567 0.1049697 
0.0324928 0.0347054 -0.0725282 0.03175754 0.05330611 -0.9980732 
0.0255524 0.0106694 -0.0718474 0.09428114 -0.2696059 -0.9583443 
0.0135532 0.0491566 -0.0694733 -0.03005701 0.07703622 -0.9965751 
0.0089598 0.0267531 -0.0702664 -0.07010271 0.01602226 -0.9974111 
0.0314838 0.0928577 -0.0510476 0.5375724 0.7187238 -0.4409674 
0.0094051 0.0807611 -0.0658025 -0.07796146 0.4383104 -0.8954362 
-0.0055521 0.1001284 -0.0455367 -0.5447216 0.8089374 -0.221131 
0.0547711 0.0050579 -0.0097391 0.4993334 -0.8391892 -0.2154709 
0.0580579 0.0002409 0.0098429 0.4933254 -0.8364082 -0.2388543 
0.039831 -0.0068711 0.0023104 0.4910104 -0.8413442 -0.2259398 
0.0756592 0.0311117 0.0195909 0.9592065 0.2823064 0.01503695 
0.0654136 0.0497494 0.0385121 0.8107643 0.3939957 0.4329305 
0.0760656 0.0092107 0.0255163 0.8958982 -0.4442514 0.002660936 
0.0696438 0.0218474 0.0434675 0.751195 0.1454507 0.6438558 
0.0322952 0.1023978 0.0494514 0.1511588 0.802539 0.5771327 
0.0212613 -0.0101469 -0.0469867 0.5589651 -0.7939982 -0.2390076 
-0.0090517 0.0372903 -0.0702842 -0.04705405 0.005085964 -0.9988794 
0.068044 -0.0016226 0.0479538 0.8173225 -0.3696235 0.4419981 
0.0473561 0.0345216 0.0520749 0.4021361 0.1179025 0.9079568 
0.0048228 0.0050486 -0.0709941 0.0004626142 -0.08516469 -0.9963668 
-0.0080855 0.0592881 -0.0694498 -0.1489081 0.2231868 -0.9633349 
-0.028212 0.0502575 -0.0669627 -0.6537561 0.306283 -0.6919491 
-0.0202245 0.0736982 -0.057216 -0.7599436 0.5101131 -0.4028279 
0.002974 0.0763197 0.0358502 -0.8352195 0.4527064 0.3121943 
0.0132025 0.0654744 0.0612892 -0.2736937 0.3690594 0.8881931 
0.0596871 -0.0042777 0.0297735 0.6059669 -0.7319701 -0.3114867 
0.0417958 -0.0117964 0.0225193 0.4882151 -0.7698435 -0.4110802 
0.0533236 -0.0203087 0.0408696 0.7042291 -0.659439 -0.2630621 
0.0168896 -0.0074133 -0.0651073 0.3915207 -0.6611411 -0.6400031 
0.0054944 -0.0183168 -0.052728 0.4920075 -0.7906451 -0.3644296 
0.0016518 -0.0130849 -0.0686454 0.3165014 -0.4898898 -0.8123023 
0.0101679 0.0990476 0.0129885 -0.5802522 0.7934812 0.1835617 
-0.0028817 0.0875819 -0.0130599 -0.8102928 0.5426885 0.2211666 
-0.001736 0.0752695 0.0100269 -0.887158 0.4019654 0.2266593 
0.02322 -0.0130417 -0.0291643 0.7357569 -0.6550669 -0.1718986 
0.0211892 -0.0155579 -0.0093663 0.8045942 -0.5858955 -0.09672029 
0.0190447 -0.0275093 -0.0222979 0.914781 -0.3029068 -0.2672512 
0.0123615 -0.0239967 -0.0356982 0.6131478 -0.6132374 -0.4979857 
0.04308 0.0620544 0.0524304 0.5195274 0.19876 0.8310149 
0.0269282 0.0442665 0.0588003 0.3170346 0.07810979 0.945192 
-0.0278956 0.0302473 -0.0691749 -0.3233599 0.1230036 -0.9382475 
0.0505711 -0.0133348 0.0569101 0.550175 -0.2060117 0.8092383 
-0.0106661 0.0178213 -0.068365 -0.03672218 -0.0003817469 -0.9993254 
-0.0124742 -0.0003308 -0.0693745 0.02900187 0.04985788 -0.9983352 
-0.0295195 0.0082113 -0.0695471 -0.04102093 0.1266482 -0.9910992 
-0.0152632 0.0718108 -0.0331773 -0.8919618 0.3973418 0.2156934 
-0.0262748 0.0540077 -0.0467326 -0.9009982 0.406015 0.1528203 
-0.022187 0.0503047 -0.0234236 -0.8973119 0.3748296 0.2330969 
-0.0131301 0.0654104 -0.0116708 -0.8891227 0.3888072 0.2414326 
0.0246286 -0.0197346 0.014331 0.7587891 -0.5534369 -0.3434336 
0.0344841 -0.0269073 0.0350321 0.6647509 -0.4760719 -0.5757272 
0.0215545 -0.0425126 0.0212567 0.9386106 -0.07127311 -0.3375359 
0.0173049 -0.0331072 0.0005638 0.9925457 -0.06393772 -0.1037538 
0.0503206 0.0102442 0.0548268 0.3620862 0.1279013 0.9233281 
0.0322185 0.0196172 0.058713 0.3201402 0.1110417 0.9408401 
0.0313513 -0.0007455 0.0623982 0.2718737 0.06212566 0.9603255 
-0.0092776 -0.0270963 -0.0565908 0.5116191 -0.7637591 -0.393596 
0.0019479 0.0447897 0.0663494 -0.321532 0.3178731 0.8919494 
-0.045313 0.0198329 -0.0634623 -0.7615378 0.4356017 -0.4799077 
-0.0199523 0.0434148 -0.005313 -0.9017031 0.3467629 0.2582381 
0.0227164 -0.0589306 0.0035592 0.9132803 -0.2656917 -0.3087509 
-0.0366033 0.0369539 -0.0558003 -0.897015 0.4299311 -0.1025838 
-0.0409353 0.0222013 -0.0458121 -0.877673 0.4113449 0.2459382 
-0.0321935 0.0347743 -0.0357692 -0.8876722 0.3836001 0.2547331 
-0.0144776 -0.018814 -0.071145 0.2569805 -0.3159395 -0.9133145 
-0.0275391 -0.0349622 -0.0672942 0.347928 -0.6120114 -0.710203 
-0.0318383 -0.011518 -0.0723741 0.06887349 0.0173521 -0.9974745 
-0.0117182 0.0559504 0.0069344 -0.8926008 0.3666073 0.262417 
-0.006 0.0558242 0.0266023 -0.9077277 0.3707046 0.196491 
-0.0155695 0.0390903 0.0147983 -0.9040517 0.3649099 0.222556 
-0.0230355 -0.0390446 -0.0464384 0.4846888 -0.7323067 -0.4783341 
-0.0050249 -0.0304359 -0.039701 0.4626599 -0.6618388 -0.5898432 
0.0065482 -0.0400207 -0.0292443 0.5252677 -0.4636561 -0.7135242 
-0.0101442 -0.0513027 -0.0301673 0.3528169 -0.5494072 -0.7574113 
-0.0033179 0.0529575 0.0472431 -0.8496333 0.4234379 0.3143621 
-0.012886 0.0376822 0.0336079 -0.9046777 0.3875863 0.1770174 
-0.0104166 0.0322372 0.0551614 -0.8467581 0.3862143 0.3658406 
-0.0039582 0.021616 0.0697458 -0.2735535 0.1856352 0.9437733 
0.018066 -0.0457358 -0.0151291 0.8602209 -0.2706393 -0.432174 
0.0034539 -0.0615646 -0.0153463 0.4984643 -0.591162 -0.6340826 
0.014304 0.0276538 0.0649854 0.2921905 0.08533179 0.9525456 
0.0136744 0.0080139 0.0665611 0.2565352 0.0512321 0.9651762 
0.0304131 -0.0239752 0.0623899 0.3077732 -0.1135909 0.9446548 
0.0455639 -0.0340482 0.0515784 0.8203936 -0.5126796 0.253207 
0.0338089 -0.0503627 0.0424675 0.9264297 -0.2859869 -0.2448256 
0.0311973 -0.0445263 0.0590069 0.5663362 -0.2505428 0.7851698 
-0.0236576 0.0274905 0.0025019 -0.8819977 0.4036911 0.243133 
0.004288 -0.0773489 0.0047918 0.5407104 -0.7112408 -0.449187 
-0.0508707 -0.0277936 -0.0743744 -0.3017195 -0.2099777 -0.9299864 
-0.0050446 0.0018162 0.070725 -0.117821 0.05551162 0.991482 
-0.0346409 -0.0596462 -0.0312582 0.2984399 -0.6895674 -0.6598714 
-0.0515164 0.0048768 -0.0527087 -0.898007 0.4228941 0.1214245 
0.0109777 -0.0317005 0.0655829 0.1972592 -0.05820346 0.9786221 
-0.0501559 1.11e-05 -0.070892 -0.5591165 0.3025493 -0.771915 
-0.061948 -0.0148855 -0.0544405 -0.933747 0.3510241 -0.0699902 
-0.0275295 0.0321736 -0.0163232 -0.8948891 0.3657385 0.2557517 
-0.0349153 0.0198989 -0.0257392 -0.8772079 0.4040725 0.2592908 
-0.0330544 0.0150083 -0.0089418 -0.8761446 0.4232106 0.2307886 
0.0237691 -0.0687527 0.0258042 0.8635987 -0.4121176 -0.2904418 
0.028398 -0.0732072 0.0528072 0.7897948 -0.4650506 0.3999402 
0.0041717 -0.0931972 0.0380608 0.5113721 -0.8585187 -0.03800309 
0.0123635 -0.011379 0.0666391 0.190609 -0.04294411 0.9807262 
-0.0082266 -0.0213227 0.0688325 0.008443682 -0.005061711 0.9999515 
-0.0729496 -0.0470442 -0.0530219 -0.9022629 -0.2583696 -0.3452052 
-0.0250796 -0.0070511 0.0652384 -0.6627045 0.2880558 0.6912645 
-0.0521427 -0.0094985 -0.0344018 -0.8745568 0.4038092 0.2684931 
-0.012677 -0.0449258 0.0695832 0.1095996 0.05279589 0.9925727 
-0.044983 -0.0499159 -0.0552579 0.1954924 -0.7711725 -0.6058677 
-0.0593772 -0.0641165 -0.0380547 -0.244032 -0.7558858 -0.6075237 
-0.0210062 0.0232718 0.0215477 -0.889516 0.4091402 0.2033854 
-0.0307821 0.0109818 0.0100715 -0.873517 0.4297079 0.2287334 
-0.0191782 0.0188474 0.0407866 -0.9004358 0.3933713 0.1856728 
-0.0265029 0.0084053 0.0275093 -0.8765301 0.4307114 0.2149018 
-0.0168154 -0.0739046 -0.0155268 0.2947023 -0.6700384 -0.6813216 
-0.0260305 -0.096325 0.0074 0.2217971 -0.8746298 -0.4310786 
-0.0432969 -0.0799598 -0.0154841 0.1133464 -0.7597997 -0.6402007 
-0.0175553 0.012982 0.060221 -0.7790969 0.3635206 0.5107453 
-0.0253791 0.0023211 0.0475884 -0.8873458 0.4105256 0.209967 
-0.0442995 0.0075961 -0.0354818 -0.8636608 0.4230865 0.2740218 
-0.0424457 0.0021561 -0.0185531 -0.867324 0.4328662 0.2457151 
0.0109191 -0.055022 0.0647109 0.3173121 -0.06512845 0.9460821 
-0.0064751 -0.0810582 0.0712882 0.2755171 -0.3715603 0.8865852 
-0.0497456 -0.015387 -0.014842 -0.8858127 0.3958856 0.2420959 
-0.0399809 -0.05996 0.073004 -0.543421 0.08339276 0.835308 
-0.0368445 -0.0058226 0.0160112 -0.8830212 0.4149712 0.2192539 
-0.0645212 -0.0979871 0.0110001 -0.7176854 -0.6858522 -0.1205586 
-0.0597023 -0.0293286 -0.0316709 -0.8967664 0.3584085 0.2595255 
-0.0670452 -0.0520152 -0.0256902 -0.9884791 0.132477 0.07320374 
-0.0569558 -0.0379062 -0.0073197 -0.89925 0.3707966 0.2320759 
-0.0391569 -0.0018122 -0.0018226 -0.8786599 0.4164798 0.2334553 
-0.0459131 -0.0206885 0.0073479 -0.8893293 0.3930441 0.2336875 
-0.0434245 -0.1065302 0.0550471 -0.3207509 -0.8273357 0.4611231 
-0.0586503 -0.0699102 0.0357553 -0.9346572 0.143478 0.325315 
-0.0306275 -0.0296979 0.0677741 -0.5483471 0.2496567 0.7981146 
-0.033765 -0.0180794 0.0498379 -0.8936263 0.3543277 0.2754702 
-0.0435341 -0.039158 0.0458374 -0.8886243 0.3470604 0.2998264 
-0.0715656 -0.0789481 -0.0186653 -0.8266289 -0.4179475 -0.3768348 
-0.0638085 -0.0607271 0.0043375 -0.9429041 0.2480398 0.2222797 
-0.0333795 -0.00705 0.0339749 -0.8823555 0.4182413 0.2156919 
-0.0419626 -0.0236379 0.0278719 -0.8975047 0.3775888 0.2278417 
-0.0514523 -0.0414762 0.0185211 -0.8972123 0.3717487 0.2383548 
3 0 1 2 
3 0 3 4 
3 0 2 5 
3 0 5 3 
3 0 6 1 
3 0 4 6 
3 1 6 7 
3 3 5 8 
3 2 9 5 
3 6 4 10 
3 11 2 1 
3 8 12 13 
3 7 14 15 
3 16 4 3 
3 17 1 7 
3 17 11 1 
3 17 7 15 
3 17 18 11 
3 17 15 18 
3 19 3 8 
3 19 8 13 
3 19 16 3 
3 19 13 20 
3 19 20 16 
3 21 2 11 
3 21 11 22 
3 21 9 2 
3 21 23 9 
3 21 22 24 
3 21 24 23 
3 25 5 9 
3 25 8 5 
3 25 9 26 
3 25 26 27 
3 25 12 8 
3 25 27 12 
3 28 6 10 
3 28 7 6 
3 28 10 29 
3 28 29 30 
3 28 14 7 
3 28 30 14 
3 31 4 16 
3 31 16 32 
3 31 10 4 
3 31 33 10 
3 31 32 34 
3 31 34 33 
3 18 22 11 
3 13 35 20 
3 15 36 18 
3 20 32 16 
3 23 24 37 
3 26 9 23 
3 29 10 33 
3 33 34 38 
3 32 39 34 
3 24 22 40 
3 41 23 37 
3 41 26 23 
3 41 37 42 
3 41 43 26 
3 41 42 43 
3 35 44 45 
3 46 29 33 
3 46 33 38 
3 46 47 29 
3 46 38 48 
3 46 48 47 
3 49 18 36 
3 49 22 18 
3 49 36 50 
3 49 40 22 
3 49 50 51 
3 49 51 40 
3 52 13 12 
3 52 12 53 
3 52 35 13 
3 52 53 54 
3 52 44 35 
3 52 54 44 
3 55 15 14 
3 55 14 56 
3 55 36 15 
3 55 56 57 
3 55 58 36 
3 55 57 58 
3 59 20 35 
3 59 32 20 
3 59 35 45 
3 59 39 32 
3 59 45 60 
3 59 60 39 
3 37 61 42 
3 43 27 26 
3 47 30 29 
3 38 62 48 
3 53 12 27 
3 56 14 30 
3 63 24 40 
3 63 37 24 
3 63 40 64 
3 63 61 37 
3 63 64 65 
3 63 65 61 
3 66 27 43 
3 66 43 67 
3 66 53 27 
3 66 67 68 
3 66 69 53 
3 66 68 69 
3 70 30 47 
3 70 47 71 
3 70 56 30 
3 70 71 72 
3 70 73 56 
3 70 72 73 
3 74 34 39 
3 74 38 34 
3 74 39 75 
3 74 62 38 
3 74 75 76 
3 74 76 62 
3 42 67 43 
3 48 71 47 
3 58 50 36 
3 51 50 77 
3 54 53 69 
3 57 56 73 
3 60 45 78 
3 61 65 79 
3 64 40 51 
3 69 68 80 
3 73 72 81 
3 75 39 60 
3 82 42 61 
3 82 61 79 
3 82 67 42 
3 82 79 83 
3 82 84 67 
3 82 83 84 
3 68 67 84 
3 85 51 77 
3 85 64 51 
3 85 77 86 
3 85 87 64 
3 85 86 87 
3 88 54 69 
3 88 69 80 
3 88 89 54 
3 88 80 90 
3 88 90 89 
3 77 91 86 
3 89 44 54 
3 92 50 58 
3 92 58 93 
3 92 77 50 
3 92 93 94 
3 92 91 77 
3 92 94 91 
3 95 44 89 
3 95 45 44 
3 95 89 96 
3 95 78 45 
3 95 96 97 
3 95 97 78 
3 93 58 57 
3 78 97 98 
3 99 57 73 
3 99 73 81 
3 99 93 57 
3 99 81 100 
3 99 100 93 
3 101 60 78 
3 101 75 60 
3 101 78 98 
3 101 102 75 
3 101 98 102 
3 76 103 62 
3 104 48 62 
3 104 71 48 
3 104 62 103 
3 104 105 71 
3 104 103 106 
3 104 106 105 
3 87 65 64 
3 80 107 90 
3 81 108 100 
3 102 76 75 
3 105 72 71 
3 86 109 87 
3 90 96 89 
3 100 94 93 
3 98 110 102 
3 91 94 111 
3 83 79 112 
3 106 103 113 
3 114 65 87 
3 114 87 109 
3 114 79 65 
3 114 109 115 
3 114 112 79 
3 114 115 112 
3 116 68 84 
3 116 80 68 
3 116 84 117 
3 116 107 80 
3 116 117 118 
3 116 118 107 
3 119 72 105 
3 119 81 72 
3 119 105 120 
3 119 108 81 
3 119 120 121 
3 119 121 108 
3 122 76 102 
3 122 102 110 
3 122 103 76 
3 122 110 123 
3 122 113 103 
3 122 123 113 
3 109 124 115 
3 110 125 123 
3 112 115 126 
3 117 84 83 
3 120 105 106 
3 113 123 127 
3 128 86 91 
3 128 91 111 
3 128 109 86 
3 128 111 129 
3 128 124 109 
3 128 129 124 
3 130 90 107 
3 130 96 90 
3 130 107 131 
3 130 132 96 
3 130 131 133 
3 130 133 132 
3 134 100 108 
3 134 94 100 
3 134 108 135 
3 134 111 94 
3 134 135 136 
3 134 136 111 
3 137 98 97 
3 137 97 132 
3 137 110 98 
3 137 132 138 
3 137 125 110 
3 137 138 125 
3 139 83 112 
3 139 112 126 
3 139 117 83 
3 139 126 140 
3 139 140 117 
3 132 97 96 
3 141 106 113 
3 141 120 106 
3 141 113 127 
3 141 142 120 
3 141 127 142 
3 121 135 108 
3 131 107 118 
3 126 143 140 
3 140 118 117 
3 142 121 120 
3 127 144 142 
3 129 111 136 
3 133 131 145 
3 136 135 146 
3 138 132 133 
3 147 115 124 
3 147 124 148 
3 147 126 115 
3 147 143 126 
3 147 148 149 
3 147 149 143 
3 150 118 140 
3 150 131 118 
3 150 140 143 
3 150 143 151 
3 150 145 131 
3 150 151 145 
3 152 121 142 
3 152 135 121 
3 152 142 144 
3 152 144 153 
3 152 146 135 
3 152 153 146 
3 154 123 125 
3 154 125 155 
3 154 127 123 
3 154 144 127 
3 154 155 156 
3 154 156 144 
3 157 129 136 
3 157 136 146 
3 157 148 129 
3 157 146 158 
3 157 158 148 
3 159 133 145 
3 159 138 133 
3 159 145 160 
3 159 155 138 
3 159 160 155 
3 148 124 129 
3 145 151 160 
3 146 153 158 
3 155 125 138 
3 149 151 143 
3 153 144 156 
3 158 149 148 
3 160 156 155 
3 161 149 158 
3 161 151 149 
3 161 153 156 
3 161 156 160 
3 161 158 153 
3 161 160 151 
